<svg width="72" height="72" viewBox="0 0 72 72" fill="none" xmlns="http://www.w3.org/2000/svg">
<mask id="mask0" mask-type="alpha" maskUnits="userSpaceOnUse" x="0" y="0" width="72" height="72">
<path d="M55.7965 0H16.2035C7.25456 0 0 7.25456 0 16.2035V55.7965C0 64.7454 7.25456 72 16.2035 72H55.7965C64.7454 72 72 64.7454 72 55.7965V16.2035C72 7.25456 64.7454 0 55.7965 0Z" fill="white"/>
</mask>
<g mask="url(#mask0)">
<path d="M55.7965 0H16.2035C7.25456 0 0 7.25456 0 16.2035V55.7965C0 64.7454 7.25456 72 16.2035 72H55.7965C64.7454 72 72 64.7454 72 55.7965V16.2035C72 7.25456 64.7454 0 55.7965 0Z" fill="url(#paint0_linear)"/>
<g opacity="0.16" filter="url(#filter0_f)">
<path d="M16.1334 -0.493164C9.6397 2.57511 5.74653 8.38509 4.45387 16.9368C3.16122 25.4885 1.40473 38.3008 -0.815591 55.3738H-1.40869L-0.456062 16.1369C-0.235706 7.06094 7.05794 -0.250591 16.1334 -0.493164Z" fill="#79C7D1"/>
</g>
<path d="M16.1332 -0.0705566C8.25206 2.49585 3.93112 8.30444 3.17039 17.3552C2.40966 26.406 1.32943 39.8303 -0.0703125 57.6281V55.8286V16.133C-0.0703125 7.18401 7.18425 -0.0705566 16.1332 -0.0705566Z" fill="url(#paint1_linear)"/>
<g opacity="0.2" filter="url(#filter1_f)">
<path d="M56.2182 72.5635C61.9163 70.5448 65.5024 65.202 66.9763 56.5351C68.4502 47.8682 70.5472 33.7903 73.2671 14.3012L73.2671 16.1227L72.3513 56.192C72.1487 65.0567 65.0789 72.2309 56.2182 72.5635Z" fill="#ED675B"/>
</g>
<path d="M55.7965 71.9294C63.6776 69.363 67.9986 63.5544 68.7593 54.5037C69.52 45.4529 70.6003 32.0286 72 14.2308V16.0303V55.7259C72 64.6749 64.7454 71.9294 55.7965 71.9294Z" fill="url(#paint2_linear)"/>
<g opacity="0.25">
<path opacity="0.25" d="M10.1304 50.406C13.0468 51.0896 15.894 51.3479 18.6719 51.1808C21.4497 51.0137 24.0454 49.9654 26.459 48.0361C26.1706 47.7323 25.7759 46.8056 25.275 45.256C26.3369 42.5704 22.8529 35.4101 25.275 33.2469C26.411 32.2322 25.6958 31.3014 25.275 31.1276C24.2121 32.6338 23.3851 32.9381 23.3851 34.5686C21.6091 41.0631 16.7365 43.1679 14.8238 39.7186C11.9963 34.6193 15.4386 28.0285 23.795 30.6947C22.6793 29.8971 21.9734 28.5526 19.0362 28.2564C10.9711 27.443 6.47597 36.9731 6.76348 42.6354C6.95516 46.4103 8.07746 49.0005 10.1304 50.406Z" fill="url(#paint3_radial)"/>
<path opacity="0.25" d="M25.9585 42.4531C26.0996 43.3873 27.2478 47.0723 29.8065 49.3805C30.257 49.787 33.3385 50.4782 39.0509 51.4542C49.3993 49.6578 54.7653 45.5332 55.1488 39.0805C55.6821 30.108 52.6426 24.8579 44.6521 25.5902C40.9642 25.9282 38.4171 27.6095 36.5007 28.7121C34.2649 29.9985 29.8193 29.2181 28.577 34.523C28.2354 35.9814 28.772 38.405 30.9222 38.8299C36.6601 39.9635 39.8727 34.5515 42.1247 34.7964C47.3617 35.3661 45.1303 40.7212 41.7149 43.8204C39.0426 46.2452 28.4176 48.7653 25.9585 42.4531Z" fill="url(#paint4_radial)"/>
<path opacity="0.25" d="M26.049 42.3161C25.9579 46.5091 27.1895 48.0658 27.4834 48.6283C28.7813 51.1122 31.5591 53.3909 35.1567 54.029C38.1322 54.5567 46.4731 55.7381 55.2165 51.454C64.9249 46.6971 66.8051 35.6707 65.4855 28.803C63.7778 19.9158 52.0272 16.3123 44.0367 17.0446C37.2546 17.6662 28.1803 23.3434 24.8422 30.8767C24.763 31.0553 25.7276 31.5574 25.7985 32.3579C26.0337 35.0134 25.271 36.9651 25.4569 38.6473C26.0337 43.8657 17.5788 47.5801 12.7061 43.3644C11.3696 42.208 9.84945 38.636 11.4993 34.9101C12.3873 32.9048 14.6099 29.8753 18.2391 29.3272C19.7439 29.0999 22.6741 29.6923 24.2502 30.9907C23.8403 29.8291 21.2674 27.4586 17.9658 27.3674C14.6643 27.2763 11.4047 28.4107 8.31163 32.0161C6.08105 34.6162 5.53377 38.1916 5.41992 39.0575C5.32095 39.8103 4.3928 46.2494 9.51841 49.95C17.2828 55.5558 23.9542 50.2462 24.9105 48.6283C28.0241 43.3605 22.6791 26.6154 32.561 35.5026C34.271 37.0405 31.7508 33.102 32.0145 34.9101C32.0602 35.2233 34.1112 32.0058 34.1776 32.3579C34.3078 33.0484 34.6102 31.0155 35.3388 30.6726C36.0675 30.3298 42.8072 26.8433 47.4749 30.6726C52.1426 34.502 48.5678 42.8175 42.9893 46.2128C38.9644 48.6626 33.9499 49.1752 31.0582 47.8991C30.4909 47.6488 26.8003 45.5975 26.049 42.3161Z" fill="url(#paint5_linear)"/>
</g>
<path d="M29.53 31.1158C28.6144 31.1158 27.8101 31.7109 27.1172 32.9011C26.4243 34.0913 26.0779 35.5047 26.0779 37.1413C26.059 38.6409 26.0495 40.3678 26.0495 42.3219C25.7526 48.4857 29.7605 51.8927 31.7533 52.7893C28.2761 53.1703 25.7974 51.8255 23.4464 50.3237C20.233 48.271 19.2007 43.6666 19.2007 40.6903C19.2007 36.3695 19.2267 33.6393 19.2267 32.4997C19.2267 31.7899 19.0909 31.2315 18.4309 30.7335C18.2309 30.5825 17.7383 30.3659 16.9531 30.0834C18.1861 30.0774 19.9427 30.0743 22.2228 30.0743C25.6431 30.0743 26.0495 32.6266 26.0495 32.9011C26.0495 33.5116 26.059 33.7595 26.0779 33.645C26.3996 32.3804 27.0182 31.4071 27.9339 30.7252C28.8495 30.0433 29.8888 29.7024 31.0518 29.7024C32.2149 29.7024 33.1614 30.0309 33.8914 30.688C34.6214 31.3451 34.9864 32.275 34.9864 33.4776C34.9864 34.6802 34.7142 35.6039 34.1698 36.2486C33.6254 36.8933 32.7902 37.2156 31.6643 37.2156C30.5384 37.2156 29.7094 36.8437 29.1773 36.0998C28.6453 35.3559 28.5772 34.3269 28.9732 33.0127H30.3095C30.9281 31.7481 30.6683 31.1158 29.53 31.1158Z" fill="white"/>
<path d="M45.3765 43.51C45.5939 49.6105 48.1146 50.9021 50.722 51.3567C50.9815 51.402 52.3239 51.5031 53.1152 51.1998C53.6222 51.0055 54.1366 50.6169 54.6584 50.034C54.2857 50.7813 53.8234 51.3194 53.2718 51.6482C52.4442 52.1414 51.9745 52.388 50.8786 52.5673C47.9397 53.0483 39.0222 52.2703 38.5101 41.6044C38.5101 38.5324 38.5557 33.9235 38.5182 27.7789C38.4532 26.429 37.9361 25.8737 36.9669 26.1128L35.7144 26.5388C41.5892 22.3987 44.7428 20.1718 45.1752 19.8579C45.1752 20.1269 45.2337 39.0738 45.3765 43.51Z" fill="white"/>
</g>
<defs>
<filter id="filter0_f" x="-21.4087" y="-20.4932" width="57.5421" height="95.8669" filterUnits="userSpaceOnUse" color-interpolation-filters="sRGB">
<feFlood flood-opacity="0" result="BackgroundImageFix"/>
<feBlend mode="normal" in="SourceGraphic" in2="BackgroundImageFix" result="shape"/>
<feGaussianBlur stdDeviation="10" result="effect1_foregroundBlur"/>
</filter>
<filter id="filter1_f" x="36.2183" y="-5.69873" width="57.0489" height="98.2622" filterUnits="userSpaceOnUse" color-interpolation-filters="sRGB">
<feFlood flood-opacity="0" result="BackgroundImageFix"/>
<feBlend mode="normal" in="SourceGraphic" in2="BackgroundImageFix" result="shape"/>
<feGaussianBlur stdDeviation="10" result="effect1_foregroundBlur"/>
</filter>
<linearGradient id="paint0_linear" x1="66.8927" y1="2.67968" x2="3.746" y2="69.5144" gradientUnits="userSpaceOnUse">
<stop offset="0.192708" stop-color="#ED675B"/>
<stop offset="0.6875" stop-color="#389AA3"/>
</linearGradient>
<linearGradient id="paint1_linear" x1="18.8571" y1="-23.1429" x2="-9.70237" y2="-20.62" gradientUnits="userSpaceOnUse">
<stop offset="0.0482659" stop-color="#ED675B"/>
<stop offset="0.757426" stop-color="#389AA3"/>
</linearGradient>
<linearGradient id="paint2_linear" x1="72" y1="122.143" x2="106.581" y2="57.0506" gradientUnits="userSpaceOnUse">
<stop offset="0.520833" stop-color="#389AA3"/>
<stop offset="1" stop-color="#ED675B"/>
</linearGradient>
<radialGradient id="paint3_radial" cx="0" cy="0" r="1" gradientUnits="userSpaceOnUse" gradientTransform="translate(30.9354 11.1241) rotate(-65.1031) scale(21.8787 28.0578)">
<stop stop-color="#EEFAFF"/>
<stop offset="1" stop-color="#6BC9FF"/>
</radialGradient>
<radialGradient id="paint4_radial" cx="0" cy="0" r="1" gradientUnits="userSpaceOnUse" gradientTransform="translate(42.9998 18.6145) rotate(-48.8535) scale(25.0605 32.1763)">
<stop stop-color="white"/>
<stop offset="1" stop-color="#6BC9FF"/>
</radialGradient>
<linearGradient id="paint5_linear" x1="35.5763" y1="16.9524" x2="35.5763" y2="54.5865" gradientUnits="userSpaceOnUse">
<stop stop-color="#DDF5FF"/>
<stop offset="1" stop-color="white"/>
</linearGradient>
</defs>
</svg>
