<?xml version="1.0" encoding="utf-8"?>
<svg width="5523px" height="1787px" viewBox="0 0 5523 1787" version="1.1" xmlns="http://www.w3.org/2000/svg">
  <title>Logo new</title>
  <desc>Created with Sketch.</desc>
  <defs>
    <rect id="path-2" x="0" y="0" width="1022" height="1022" rx="230"/>
    <filter x="-12.0%" y="-3.8%" width="124.1%" height="107.6%" filterUnits="objectBoundingBox" id="filter-4">
      <feGaussianBlur stdDeviation="10" in="SourceGraphic"/>
    </filter>
    <filter x="-12.4%" y="-3.6%" width="124.8%" height="107.3%" filterUnits="objectBoundingBox" id="filter-5">
      <feGaussianBlur stdDeviation="10" in="SourceGraphic"/>
    </filter>
    <radialGradient cx="73.0883345%" cy="44.8373093%" r="126.570761%" gradientTransform="translate(0.730883,0.448373),scale(1.000000,0.856053),rotate(-68.331527),scale(1.000000,0.986508),translate(-0.730883,-0.448373)" id="radialGradient-6">
      <stop stop-color="#EEFAFF" offset="0"/>
      <stop stop-color="#6BC9FF" offset="1"/>
    </radialGradient>
    <radialGradient cx="27.4697083%" cy="50%" r="90.587478%" gradientTransform="translate(0.274697,0.500000),scale(0.886573,1.000000),rotate(-45.416178),scale(1.000000,1.461257),translate(-0.274697,-0.500000)" id="radialGradient-7">
      <stop stop-color="#FFFFFF" offset="0"/>
      <stop stop-color="#6BC9FF" offset="1"/>
    </radialGradient>
    <linearGradient x1="50%" y1="0%" x2="50%" y2="100%" id="linearGradient-8">
      <stop stop-color="#DDF5FF" offset="0"/>
      <stop stop-color="#FFFFFF" offset="1"/>
    </linearGradient>
    <linearGradient gradientUnits="userSpaceOnUse" x1="511" y1="0" x2="511" y2="1022" id="gradient-0" gradientTransform="matrix(0.69439, 0.7196, -1.670823, 1.612289, 548.592624, -367.715317)">
      <stop offset="0" style="stop-color: rgba(63, 81, 155, 1)"/>
      <stop offset="1" style="stop-color: rgba(33, 43, 82, 1)"/>
    </linearGradient>
  </defs>
  <g id="Logo-new" stroke="none" stroke-width="1" fill="none" fill-rule="evenodd">
    <g id="RL-logo" transform="translate(301.000000, 365.000000)">
      <mask id="mask-3" fill="white">
        <rect x="0" y="0" width="1022" height="1022" rx="230" transform="matrix(1, 0, 0, 1, 0, 0)"/>
      </mask>
      <rect id="Rectangle" x="0" y="0" width="1022" height="1022" rx="230" transform="matrix(1, 0, 0, 1, 0, 0)" fill-rule="nonzero" style="paint-order: fill; fill: url(#gradient-0);"/>
      <path d="M229,-7 L229,-7 C136.825748,36.5524742 81.5643693,119.021887 63.2158648,240.408238 C44.8673602,361.794589 19.9349805,543.65851 -11.5812744,786 L-20,786 L-6.47795371,229.055102 C-3.35012272,100.226264 100.179205,-3.55681037 229,-7 Z" id="Rectangle" fill="#2297F3" fill-rule="nonzero" opacity="0.16" filter="url(#filter-4)" mask="url(#mask-3)"/>
      <path d="M229,-1 L229,-1 C117.131455,35.4287406 55.7981221,117.878405 45,246.348993 C34.2018779,374.819582 18.8685446,565.369917 -1,818 L-1,792.456771 L-1,229 C-1,101.974508 101.974508,-1 229,-1 Z" id="Rectangle" fill-rule="nonzero" mask="url(#mask-3)" style="fill: rgb(222, 184, 135);"/>
      <path d="M1040,203 L1040,203 C959.117647,231.654683 908.215686,307.49264 887.294118,430.513873 C866.372549,553.535105 836.607843,753.363814 798,1030 L798,1004.14615 L810.998694,435.383987 C813.874437,309.554898 914.226603,207.720386 1040,203 Z" id="Rectangle" fill="#44C6FA" fill-rule="nonzero" opacity="0.2" filter="url(#filter-5)" mask="url(#mask-3)" transform="translate(919.000000, 616.500000) rotate(-180.000000) translate(-919.000000, -616.500000) "/>
      <path d="M1022,202 L1022,202 C910.131455,238.428741 848.798122,320.878405 838,449.348993 C827.201878,577.819582 811.868545,768.369917 792,1021 L792,995.456771 L792,432 C792,304.974508 894.974508,202 1022,202 Z" id="Rectangle" fill-rule="nonzero" mask="url(#mask-3)" transform="translate(907.000000, 611.500000) rotate(-180.000000) translate(-907.000000, -611.500000) " style="fill: rgb(222, 184, 135);"/>
      <g id="Group" mask="url(#mask-3)">
        <g transform="translate(75.000000, 240.000000)">
          <g id="Group-3" opacity="0.25" stroke-width="1" fill="none" fill-rule="evenodd" transform="translate(0.130198, 0.631960)">
            <path d="M68.6687396,474.851716 C110.066295,484.555465 150.480163,488.221325 189.910343,485.849298 C229.340523,483.477271 266.185118,468.59819 300.444127,441.212055 C296.350283,436.899278 290.748181,423.745308 283.63782,401.750144 C298.711939,363.62931 249.258385,261.993113 283.63782,231.287629 C299.763666,216.885069 289.611047,203.673134 283.63782,201.206009 C268.550482,222.585803 256.81237,226.904738 256.81237,250.04821 C231.602911,342.23382 162.438496,372.111337 135.289847,323.149782 C95.155031,250.768166 144.016199,157.215683 262.629938,195.060302 C246.793226,183.739262 236.774082,164.655223 195.081514,160.450265 C80.6028537,148.904372 16.796585,284.17971 20.8776853,364.552442 C23.5984188,418.134263 39.5287703,454.900688 68.6687396,474.851716 Z" id="Oval" fill="url(#radialGradient-6)" fill-rule="nonzero"/>
            <path d="M293.333766,361.964776 C295.336184,375.225481 311.635031,427.531868 347.954262,460.296094 C354.348968,466.064872 398.088458,475.87644 479.17273,489.730797 C626.06267,464.230967 702.229712,405.685017 707.673856,314.09295 C715.243986,186.733407 672.09917,112.210623 558.679487,122.605646 C506.331178,127.403419 470.177082,151.268738 442.974532,166.919431 C411.239083,185.178078 348.135662,174.101909 330.501559,249.401293 C325.653586,270.102623 333.269566,304.504678 363.790974,310.534909 C445.23692,326.626493 490.838468,249.805429 522.804487,253.282793 C597.140073,261.36925 565.466649,337.381946 516.98692,381.372273 C479.055145,415.791424 328.239172,451.56272 293.333766,361.964776 Z" id="Oval" fill="url(#radialGradient-7)" fill-rule="nonzero"/>
            <path d="M294.626559,360.024026 C293.333766,419.54035 310.816106,441.637632 314.988046,449.62197 C333.410343,484.878923 372.840523,517.224751 423.905838,526.281583 C466.141408,533.772391 584.535343,550.540955 708.643451,489.730797 C846.448794,422.209306 873.13754,265.696496 854.405838,168.213264 C830.165974,42.0645338 663.372818,-9.08623292 549.953136,1.30879013 C453.68518,10.1318409 324.879847,90.7169228 277.497055,197.647968 C276.373534,200.183472 290.064705,207.309251 291.071379,218.672756 C294.410504,256.365352 283.584252,284.069758 286.223406,307.947242 C294.410504,382.019189 174.396829,434.742889 105.232415,374.903107 C86.2613635,358.489701 64.6836327,307.786107 88.1029105,254.900084 C100.70764,226.435755 132.255686,183.43342 183.769577,175.652805 C205.129723,172.426586 246.722958,180.836502 269.093902,199.265259 C263.276334,182.777251 226.754938,149.129225 179.891199,147.835392 C133.02746,146.541559 86.7591891,162.644455 42.8551628,213.820882 C11.1932549,250.727368 3.42498259,301.478077 1.8089916,313.769491 C0.404041514,324.455705 -12.7704745,415.8542 59.9846673,468.382551 C170.195253,547.953288 264.892325,472.587508 278.466649,449.62197 C322.663042,374.848897 246.793226,137.161269 387.061244,263.309999 C411.333288,285.138835 375.561714,229.23498 379.304487,254.900084 C379.95268,259.344901 409.0657,213.674243 410.008316,218.672756 C411.85653,228.473484 416.149082,199.617324 426.491424,194.751146 C436.833766,189.884969 532.500433,140.395852 598.756064,194.751146 C665.011694,249.106441 614.269577,367.140108 535.086019,415.335392 C477.954482,450.108654 406.776334,457.384969 365.730163,439.271305 C357.67806,435.717915 305.2921,406.602019 294.626559,360.024026 Z" id="Oval" fill="url(#linearGradient-8)" fill-rule="nonzero"/>
          </g>
          <path d="M344.160346,201.670588 C331.16385,201.670588 319.74818,210.11774 309.912993,227.012297 C300.077807,243.906854 295.160288,263.96884 295.160288,287.198856 C294.891359,308.485599 294.756895,332.997669 294.756895,360.735066 C290.5427,448.227086 347.432646,496.587515 375.718708,509.313944 C326.362374,514.722676 291.178342,495.633033 257.807145,474.316265 C212.194383,445.179861 197.542532,379.822531 197.542532,337.575817 C197.542532,276.243629 197.910653,237.490531 197.910653,221.314183 C197.910653,211.238963 195.983528,203.313669 186.615258,196.243794 C183.776648,194.101604 176.784587,191.026051 165.639077,187.017133 C183.140592,186.930994 208.074164,186.887924 240.439793,186.887924 C288.988238,186.887924 294.756895,223.115506 294.756895,227.012297 C294.756895,235.677418 294.891359,239.1971 295.160288,237.571342 C299.726624,219.620875 308.507909,205.806262 321.504405,196.127089 C334.500901,186.447915 349.253459,181.608401 365.762522,181.608401 C382.271584,181.608401 395.706949,186.271933 406.069021,195.599136 C416.431092,204.92634 421.61205,218.125015 421.61205,235.195557 C421.61205,252.266099 417.748284,265.376783 410.020638,274.528002 C402.292992,283.67922 390.438258,288.254761 374.45608,288.254761 C358.473903,288.254761 346.706981,282.975291 339.154963,272.416192 C331.602945,261.857094 330.637004,247.250561 336.25711,228.596154 L355.224875,228.596154 C364.006291,210.645687 360.318151,201.670588 344.160346,201.670588 Z" id="r" fill-rule="nonzero" style="fill: rgb(222, 184, 135);"/>
          <path d="M569.103376,377.603272 C572.18865,464.19554 607.968842,482.529746 644.979781,488.982511 C648.662762,489.624629 667.717387,491.059749 678.949552,486.754926 C686.145641,483.996964 693.447554,478.481039 700.855293,470.207153 C695.564051,480.8147 689.002911,488.452133 681.171874,493.119454 C669.425317,500.120434 662.758353,503.620925 647.202102,506.166736 C605.486595,512.993561 478.907929,501.950073 471.638704,350.554028 C471.638704,306.948467 472.285994,241.527687 471.753862,154.308031 C470.830492,135.147987 463.490192,127.265173 449.732964,130.659588 L431.954392,136.705889 C515.34436,77.9400813 560.108265,46.3295925 566.246105,41.874423 C566.246105,45.6931397 567.076876,314.632986 569.103376,377.603272 Z" id="l" fill-rule="nonzero" style="fill: rgb(222, 184, 135);"/>
        </g>
      </g>
      <path d="M1390,487 L1426.17571,487 C1461.62808,487 1487.79492,481.086979 1504.677,469.260759 C1521.55909,457.43454 1530,438.85076 1530,413.508861 C1530,388.408313 1521.37821,370.548576 1504.13437,359.929114 C1486.89053,349.309652 1460.18106,344 1424.00517,344 L1390,344 L1390,487 Z M1390.26884,578.627907 L1390.26884,782 L1278,782 L1278,252 L1432.27911,252 C1504.2281,252 1557.46472,265.110904 1591.99058,291.333105 C1626.51644,317.555307 1643.77911,357.37137 1643.77911,410.78249 C1643.77911,441.959116 1635.20813,469.691397 1618.06592,493.980164 C1600.92372,518.268931 1576.6594,537.300889 1545.27226,551.076607 C1624.94732,670.22449 1676.85604,747.198184 1701,782 L1576.41781,782 L1450.02483,578.627907 L1390.26884,578.627907 Z M1926.86215,447 C1903.44303,447 1885.0943,454.470264 1871.81542,469.411017 C1858.53654,484.35177 1850.93147,505.547885 1849,533 L2004,533 C2003.51713,505.547885 1996.39493,484.35177 1982.63318,469.411017 C1968.87143,454.470264 1950.28127,447 1926.86215,447 Z M1941.86602,789 C1876.68123,789 1825.74128,771.001906 1789.04466,735.005177 C1752.34804,699.008448 1734,648.033979 1734,582.080242 C1734,514.193793 1750.95986,461.709418 1784.8801,424.625539 C1818.80033,387.541661 1865.69646,369 1925.5699,369 C1982.78766,369 2027.32994,385.306998 2059.19806,417.921484 C2091.06618,450.53597 2107,495.591602 2107,553.089733 L2107,606.722174 L1845.9,606.722174 C1847.10713,638.128716 1856.40185,662.64961 1873.78447,680.285591 C1891.16708,697.921572 1915.55065,706.739431 1946.93592,706.739431 C1971.31986,706.739431 1994.37562,704.202786 2016.10388,699.129422 C2037.83215,694.056057 2060.52577,685.962955 2084.18544,674.849871 L2084.18544,760.371872 C2064.87142,770.035424 2044.22988,777.222582 2022.26019,781.933563 C2000.29051,786.644545 1973.49271,789 1941.86602,789 Z M2454.87563,781.747631 L2433.51254,726.62963 L2430.61585,726.62963 C2412.02866,750.079072 2392.89863,766.336303 2373.22518,775.401809 C2353.55172,784.467315 2327.9042,789 2296.28185,789 C2257.41773,789 2226.82174,777.879813 2204.49298,755.639104 C2182.16421,733.398396 2171,701.730036 2171,660.633075 C2171,617.602139 2186.02643,585.873344 2216.07974,565.445736 C2246.13305,545.018129 2291.45373,533.716634 2352.04313,531.540913 L2422.28786,529.365202 L2422.28786,511.596899 C2422.28786,470.499938 2401.28707,449.951766 2359.28485,449.951766 C2326.93832,449.951766 2288.91964,459.742365 2245.22768,479.323859 L2208.65697,404.624462 C2255.24564,380.208032 2306.90276,368 2363.62989,368 C2417.9431,368 2459.5826,379.845417 2488.54965,403.536606 C2517.51669,427.227796 2532,463.247533 2532,511.596899 L2532,781.747631 L2454.87563,781.747631 Z M2422,594 L2379.25984,595.447619 C2347.1442,596.412703 2323.23892,602.203122 2307.54331,612.819048 C2291.84769,623.434974 2284,639.599891 2284,661.314286 C2284,692.438251 2301.86859,708 2337.6063,708 C2363.20223,708 2383.66659,700.641343 2399,685.92381 C2414.33341,671.206276 2422,651.663614 2422,627.295238 L2422,594 Z M2756,782 L2646,782 L2646,218 L2756,218 L2756,782 Z M2916,782 L2880,782 L2880,218 L2916,218 L2916,782 Z M3286.55202,781.753108 L3277.49449,719.42984 L3274.59608,719.42984 C3254.79019,744.794088 3234.44115,762.729965 3213.54835,773.238011 C3192.65555,783.746056 3167.95893,789 3139.45777,789 C3100.81213,789 3070.74144,779.096014 3049.2448,759.287744 C3027.74816,739.479475 3017,712.062342 3017,677.035524 C3017,638.626806 3033.00147,608.794067 3065.0049,587.536412 C3097.00832,566.278757 3143.32201,555.046187 3203.94737,553.838366 L3278.9437,551.664298 L3278.9437,525.575488 C3278.9437,488.133028 3271.33545,459.870433 3256.11873,440.786856 C3240.902,421.703279 3216.38654,412.161634 3182.5716,412.161634 C3146.09978,412.161634 3108.30007,422.307181 3069.17136,442.598579 L3055.76622,411.436945 C3099.00103,391.145547 3141.75213,381 3184.02081,381 C3227.25562,381 3259.56048,392.23257 3280.93635,414.698046 C3302.31222,437.163523 3313,472.189815 3313,519.777975 L3313,781.753108 L3286.55202,781.753108 Z M3141.41368,756 C3183.35526,756 3216.43799,743.983212 3240.66287,719.949275 C3264.88774,695.915339 3277,662.521953 3277,619.768116 L3277,581 L3208.30293,583.898551 C3153.10396,586.555569 3113.75419,595.190748 3090.25244,609.804348 C3066.7507,624.417947 3055,647.18342 3055,678.101449 C3055,702.739254 3062.5325,721.881574 3077.59772,735.528986 C3092.66294,749.176397 3113.93472,756 3141.41368,756 Z M3714.50935,782 L3714.50935,526.851083 C3714.50935,487.281691 3706.17999,458.509867 3689.52103,440.534747 C3672.86207,422.559627 3647.02899,413.572202 3612.02103,413.572202 C3564.94135,413.572202 3530.47713,425.454905 3508.62734,449.220668 C3486.77754,472.986431 3475.8528,511.529818 3475.8528,564.851986 L3475.8528,782 L3440,782 L3440,388.600181 L3470.42056,388.600181 L3477.3014,442.525271 L3479.4743,442.525271 C3505.06633,401.508219 3550.576,381 3616.00467,381 C3705.33534,381 3750,428.892722 3750,524.679603 L3750,782 L3714.50935,782 Z M4185,387.6125 L4185,412.625 L4103.45178,417.7 C4125.19808,444.766802 4136.07107,474.491505 4136.07107,506.875 C4136.07107,544.816856 4123.44632,575.568632 4098.19645,599.13125 C4072.94657,622.693868 4039.0591,634.475 3996.53299,634.475 C3978.6527,634.475 3966.08836,633.750007 3958.83959,632.3 C3944.58369,639.791704 3933.7107,648.612449 3926.2203,658.7625 C3918.72991,668.912551 3914.98477,679.66661 3914.98477,691.025 C3914.98477,703.59173 3919.75681,712.774971 3929.30102,718.575 C3938.84523,724.375029 3954.85268,727.275 3977.32386,727.275 L4046.1868,727.275 C4088.95453,727.275 4121.6943,735.914497 4144.40711,753.19375 C4167.11991,770.473003 4178.47614,796.028997 4178.47614,829.8625 C4178.47614,871.429374 4161.62301,903.510304 4127.91624,926.10625 C4094.20948,948.702196 4046.18711,960 3983.84772,960 C3934.31447,960 3895.95699,950.454262 3868.77411,931.3625 C3841.59123,912.270738 3828,885.68767 3828,851.6125 C3828,824.545698 3836.39636,802.070923 3853.18934,784.1875 C3869.98232,766.304077 3892.75519,754.100033 3921.50863,747.575 C3909.66898,742.499975 3900.18531,735.310463 3893.05736,726.00625 C3885.92941,716.702037 3882.36548,706.008394 3882.36548,693.925 C3882.36548,667.583202 3899.15821,644.383434 3932.74416,624.325 C3909.78973,614.899953 3891.90971,600.098018 3879.10355,579.91875 C3866.2974,559.739482 3859.89442,536.60013 3859.89442,510.5 C3859.89442,471.108136 3872.39835,439.510536 3897.4066,415.70625 C3922.41485,391.901964 3956.18151,380 3998.70761,380 C4024.56155,380 4044.61617,382.537475 4058.87208,387.6125 L4185,387.6125 Z M3866,847.989107 C3866,901.996639 3906.25715,929 3986.77267,929 C4090.25807,929 4142,896.089654 4142,830.267974 C4142,806.639679 4133.90021,789.521476 4117.70039,778.912854 C4101.50058,768.304232 4075.26694,763 4038.99869,763 L3974.44152,763 C3902.14681,763 3866,791.329419 3866,847.989107 Z M3896,511.076782 C3896,541.482785 3905.25614,565.071214 3923.76868,581.842779 C3942.28123,598.614343 3967.02476,607 3998,607 C4030.9112,607 4056.1387,598.674672 4073.68327,582.023766 C4091.22785,565.37286 4100,541.241474 4100,509.628885 C4100,476.085756 4090.98586,450.928786 4072.9573,434.157221 C4054.92874,417.385657 4029.70123,409 3997.27402,409 C3965.81479,409 3941.07126,417.988941 3923.0427,435.967093 C3905.01414,453.945245 3896,478.981558 3896,511.076782 Z" id="Reallang" fill-rule="nonzero" style="fill: rgb(4, 101, 171);"/>
    </g>
  </g>
</svg>