<svg width="1402" height="527" viewBox="0 0 1402 527" fill="none" xmlns="http://www.w3.org/2000/svg">
<path fill-rule="evenodd" clip-rule="evenodd" d="M1027.9 522.399H490.3C480.5 522.399 472.5 514.399 472.5 504.599V182.999C472.5 173.199 480.5 165.199 490.3 165.199H1027.9C1037.7 165.199 1045.7 173.199 1045.7 182.999V504.699C1045.6 514.399 1037.7 522.399 1027.9 522.399Z" fill="white"/>
<path fill-rule="evenodd" clip-rule="evenodd" d="M1027.9 162.199H490.3C478.843 162.199 469.5 171.542 469.5 182.999V504.599C469.5 516.056 478.843 525.399 490.3 525.399H1027.9C1039.3 525.399 1048.58 516.118 1048.7 504.73L1048.7 182.999C1048.7 171.542 1039.36 162.199 1027.9 162.199ZM490.3 168.199H1027.9C1036.04 168.199 1042.7 174.856 1042.7 182.999V504.699C1042.62 512.781 1036 519.399 1027.9 519.399H490.3C482.157 519.399 475.5 512.742 475.5 504.599V182.999C475.5 174.856 482.157 168.199 490.3 168.199Z" fill="#79C7D1"/>
<path fill-rule="evenodd" clip-rule="evenodd" d="M1036.96 166.531C1038.27 165.513 1040.15 165.749 1041.17 167.057C1042.15 168.314 1041.97 170.105 1040.79 171.145L1040.64 171.267L771.442 380.667C764.169 386.324 754.437 386.408 747.09 380.92L746.758 380.667L477.558 171.267C476.25 170.249 476.015 168.364 477.032 167.057C478.01 165.799 479.79 165.533 481.089 166.419L481.242 166.531L750.442 375.931C755.564 379.914 762.292 379.987 767.472 376.148L767.758 375.931L1036.96 166.531Z" fill="#79C7D1"/>
<path fill-rule="evenodd" clip-rule="evenodd" d="M478.6 456.098L642.9 296.398L478.6 456.098Z" fill="white"/>
<path fill-rule="evenodd" clip-rule="evenodd" d="M640.809 294.247C641.997 293.092 643.896 293.119 645.051 294.307C646.16 295.448 646.179 297.244 645.128 298.408L644.991 298.55L480.691 458.25C479.503 459.404 477.604 459.378 476.449 458.189C475.34 457.049 475.321 455.253 476.372 454.089L476.509 453.947L640.809 294.247Z" fill="#79C7D1"/>
<path fill-rule="evenodd" clip-rule="evenodd" d="M876.7 296.398L1044.1 459.098L876.7 296.398Z" fill="white"/>
<path fill-rule="evenodd" clip-rule="evenodd" d="M874.549 294.308C875.657 293.167 877.452 293.096 878.645 294.114L878.791 294.247L1046.19 456.947C1047.38 458.102 1047.41 460.001 1046.25 461.189C1045.14 462.33 1043.35 462.4 1042.16 461.383L1042.01 461.25L874.609 298.55C873.421 297.395 873.394 295.496 874.549 294.308Z" fill="#79C7D1"/>
<path fill-rule="evenodd" clip-rule="evenodd" d="M323.9 289.3L388.2 277.4C388.2 277.4 359.2 204.2 412.7 117.5C466.2 30.9004 560.9 60.9004 616.6 100.1C616.6 100.1 550.2 -7.49962 466.9 15.5004C383.6 38.5004 343 89.6004 326.7 177.3C310.4 265 323.9 289.3 323.9 289.3Z" fill="white"/>
<path fill-rule="evenodd" clip-rule="evenodd" d="M466.101 12.6084C383.475 35.4223 340.644 85.8578 323.75 176.752C314.394 227.093 313.755 261.001 318.347 281.679C318.95 284.395 319.603 286.631 320.266 288.422L320.471 288.96C320.802 289.806 321.078 290.398 321.277 290.757C321.903 291.884 323.179 292.485 324.446 292.25L388.746 280.35C390.604 280.006 391.685 278.052 390.989 276.295L390.792 275.768L390.689 275.482C390.47 274.867 390.228 274.15 389.968 273.335L389.836 272.919C388.942 270.069 388.045 266.734 387.205 262.946C383.491 246.184 382.135 226.782 384.532 205.495C387.758 176.848 397.528 147.8 415.253 119.076C439.34 80.0862 473.223 62.9146 513.698 64.6225C547.065 66.0305 583.608 80.5499 614.873 102.553C617.496 104.399 620.752 101.408 619.237 98.6686L619.038 98.3405L618.496 97.4888L618.08 96.8483C617.719 96.2947 617.319 95.6918 616.883 95.0423L616.617 94.6471C614.561 91.6037 612.151 88.2169 609.404 84.5722C601.562 74.1653 592.586 63.7598 582.609 54.0394C566.618 38.4594 549.602 26.1556 531.778 18.3725C510.332 9.00764 488.581 6.59641 466.859 12.4025L466.101 12.6084ZM529.377 23.8711C546.465 31.3328 562.911 43.2245 578.422 58.3369C588.163 67.828 596.944 78.0062 604.613 88.1831L605.279 89.0712L604.531 88.6148C575.719 71.1104 543.739 59.8847 513.951 58.6278C471.349 56.8301 435.399 75.0491 410.148 115.923C391.948 145.417 381.893 175.313 378.57 204.824C376.094 226.806 377.496 246.865 381.347 264.244C382.166 267.939 383.041 271.236 383.923 274.107L384.227 275.084L325.738 285.909L325.65 285.655C325.162 284.233 324.671 282.482 324.204 280.378C319.805 260.572 320.43 227.452 329.649 177.848C346.139 89.1285 387.376 40.5697 467.698 18.3919C488.267 12.7129 508.881 14.9211 529.377 23.8711Z" fill="#79C7D1"/>
<path fill-rule="evenodd" clip-rule="evenodd" d="M288.3 343.799C285.5 316.999 297.7 290.899 343.6 275.899C389.5 260.899 435.7 292.999 438.3 302.799C440.9 312.599 505.6 487.099 434 504.299C362.4 521.499 304.3 461.499 298.4 429.199C292.5 396.899 288.3 343.799 288.3 343.799Z" fill="white"/>
<path fill-rule="evenodd" clip-rule="evenodd" d="M406.029 282.817C421.08 289.119 433.948 298.934 435.358 303.424L435.5 303.908C436.154 306.04 439.442 315.997 440.467 319.186C443.882 329.814 447.03 340.304 450.014 351.32C455.036 369.859 458.98 387.705 461.514 404.465C469.834 459.482 461.947 494.501 433.299 501.383C401.516 509.018 370.077 501.543 343.279 482.852C320.96 467.285 304.344 445.045 301.351 428.661C299.819 420.273 298.315 409.999 296.855 398.26C295.46 387.047 294.176 375.076 293.025 363.057L292.605 358.604C292.292 355.229 292.008 352.054 291.756 349.127L291.291 343.563C288.222 314.18 304.197 291.932 344.532 278.751C364.333 272.28 385.869 274.375 406.029 282.817ZM285.221 343.146L285.335 344.355L285.703 348.767L286.015 352.353C286.26 355.13 286.53 358.096 286.823 361.216C288.036 374.094 289.405 386.973 290.901 399.001L291.33 402.397C292.668 412.835 294.044 422.047 295.449 429.739C298.757 447.851 316.329 471.37 339.846 487.773C367.978 507.394 401.141 515.279 434.701 507.217C452.384 502.969 463.22 489.626 467.888 468.894C471.777 451.625 471.37 429.514 467.447 403.567C464.875 386.558 460.883 368.496 455.805 349.751C453.026 339.492 450.108 329.691 446.969 319.82L445.668 315.771C444.196 311.247 441.376 302.696 441.2 302.03C439.401 295.25 425.151 284.319 408.346 277.282C386.949 268.323 363.968 266.087 342.668 273.048C300.18 286.933 282.306 311.371 285.221 343.146Z" fill="#79C7D1"/>
<path fill-rule="evenodd" clip-rule="evenodd" d="M364.795 327.468C352.799 338.244 350.546 364.571 358.296 388.5C366.88 415.003 384.996 431.038 407.926 426.954C428.828 423.231 436.615 409.02 434.093 388.634C433.191 381.351 431.02 373.632 427.966 365.823C426.54 362.175 425.013 358.746 423.485 355.63L423.034 354.722C422.814 354.282 422.601 353.864 422.397 353.469L421.808 352.351L421.545 351.866L421.639 352.13C419.037 344.519 410.627 333.478 401.521 326.961C389.23 318.163 376.359 317.331 365.135 327.167L364.795 327.468ZM398.029 331.84C406.136 337.643 413.772 347.667 415.961 354.071C416.001 354.186 416.047 354.299 416.1 354.409L416.606 355.347L417.069 356.23C417.39 356.85 417.735 357.532 418.098 358.273C419.557 361.246 421.016 364.525 422.378 368.008C425.264 375.388 427.306 382.646 428.138 389.371C430.305 406.881 424.237 417.954 406.874 421.047C387.45 424.506 371.77 410.626 364.004 386.651C356.904 364.731 358.955 340.78 368.805 331.932C377.775 323.874 387.711 324.454 398.029 331.84Z" fill="#79C7D1"/>
<path fill-rule="evenodd" clip-rule="evenodd" d="M622.9 257.201C598.6 243.401 543.1 225.401 511.8 237.601C480.5 249.801 422.6 279.801 408.8 408.601C395 537.401 547.9 516.901 547.9 516.901L622.9 257.201Z" fill="white"/>
<path fill-rule="evenodd" clip-rule="evenodd" d="M510.71 234.806C500.373 238.835 491.678 243.063 482.805 248.84C471.339 256.306 460.862 265.675 451.395 277.501C427.956 306.782 412.138 349.29 405.817 408.281C402.371 440.449 408.903 465.442 424.031 483.827C436.702 499.224 454.906 509.433 477.146 515.286C498.408 520.88 520.801 522.014 540.911 520.571L542.006 520.49C543.548 520.372 544.939 520.246 546.166 520.118L547.634 519.957L548.299 519.874C549.478 519.716 550.452 518.876 550.782 517.733L625.782 258.033C626.167 256.7 625.588 255.277 624.381 254.592C610.861 246.914 590.35 239.174 570.635 234.725C546.761 229.336 525.755 228.942 510.71 234.806ZM570.273 240.796C587.854 244.856 606 251.565 618.729 258.333L619.353 258.667L545.572 514.147L544.635 514.242C543.693 514.332 542.662 514.422 541.547 514.507C521.766 516.025 499.572 514.982 478.673 509.483C457.559 503.927 440.444 494.329 428.664 480.014C414.612 462.938 408.501 439.554 411.783 408.921C417.988 351.005 433.405 309.576 456.079 281.251C472.501 260.737 490.095 249.281 512.889 240.396C526.594 235.055 546.5 235.428 569.314 240.577L570.273 240.796Z" fill="#79C7D1"/>
<path fill-rule="evenodd" clip-rule="evenodd" d="M657.8 275.4C659.7 265.3 664.2 242.4 664.2 242.4C670.1 213.5 675.6 186.4 674.5 158.9C672.2 102.3 636.2 52.0999 596.8 31.2999C511.2 -14.0001 456 4.49991 456 4.49991C272.6 66.4999 305.9 268.5 309.9 289.4C273.1 307.3 257.4 332 260.2 366.6C262.3 385.5 259.8 477.7 306.6 503.9C353.3 530.1 400 522.6 430.6 505.2C360.9 519.4 310.8 455.1 304.9 423.3C299 391 294.9 343.1 294.9 343.1C292.6 321.5 302.3 298.7 334.4 282.4L334.2 280.8C334.2 280.8 334.2 280.8 334.3 280.8C334.2 280.5 334.2 280.1 334.1 279.8L333.9 278.1L333.8 278.2C329.3 248.5 322 170.7 358.6 108.8C405.4 29.3999 459.4 24.8999 459.4 24.8999C562.2 9.69991 599.9 121.6 597.6 182.5C595.5 237.2 564.8 250.2 558.6 252.3C550.8 251.4 543 252.9 536.1 256.3C513.6 260.3 476.9 310.3 455.1 360.3C455.1 360.4 455.2 360.6 455.2 360.7L454.7 361.2C444.5 384.8 437.7 408.4 437.3 427.1C432.5 447.1 438.9 468.2 453.7 482.4L463.4 480.4C462.4 483 461.2 485.3 459.8 487.5C462.3 489.3 465 491 467.9 492.4L517.9 517.1C539.9 528 566.5 518.9 577.1 496.8L578.6 493.8C601.6 496.8 631.9 473.6 650.5 436.9C670 398.4 669.9 358.4 651.4 343C652.6 331.6 652.2 314.4 655.3 291.4C656 286 656.9 280.7 657.8 275.4Z" fill="#ED675B"/>
<path fill-rule="evenodd" clip-rule="evenodd" d="M569.9 470.8C485.6 490.5 336.7 486.4 174.7 457.4L173.8 460.2C171 452.1 164.2 445.7 155.2 443.7L112 434C98.1999 430.9 84.4999 439.6 81.3999 453.4L80.8999 455.5C77.7999 469.3 86.4999 483 100.3 486.1L143.5 495.8C150.5 497.4 157.4 495.9 163 492.3L162.5 493.9C162.5 493.9 320.8 541.5 550.2 521.6C550.1 521.5 570.2 473.3 569.9 470.8Z" fill="#ED675B"/>
<path fill-rule="evenodd" clip-rule="evenodd" d="M556.165 454.448C574.427 451.137 583.476 460.935 584.898 478.165C585.358 483.73 584.995 489.631 584.113 495.393C583.929 496.595 583.733 497.711 583.536 498.725L583.347 499.659C583.248 500.132 583.169 500.484 583.117 500.702C582.729 502.313 581.109 503.304 579.498 502.916C577.944 502.542 576.967 501.022 577.247 499.47L577.449 498.548C577.483 498.389 577.519 498.217 577.556 498.035C577.768 496.982 577.982 495.79 578.182 494.485C578.999 489.149 579.334 483.693 578.919 478.658C577.803 465.14 571.958 458.323 558.893 460.088L558.377 460.162L558.21 460.377C548.145 473.19 529.65 480.477 505.143 483.489L504.376 483.582C487.957 485.53 470.482 485.418 453.972 484.063L452.429 483.932C450.665 483.777 449.029 483.616 447.535 483.455L445.876 483.268L444.297 483.072C442.655 482.85 441.505 481.338 441.727 479.696C441.942 478.113 443.355 476.987 444.928 477.108L446.893 477.346L447.568 477.422C449.587 477.647 451.899 477.873 454.463 478.083C470.608 479.408 487.707 479.518 503.668 477.624C527.818 474.758 545.563 467.656 554.271 455.639C554.725 455.013 555.403 454.586 556.165 454.448Z" fill="white"/>
<path fill-rule="evenodd" clip-rule="evenodd" d="M612.8 340.607C621.869 335.242 630.134 334.342 636.859 336.114C638.031 336.423 638.89 336.748 639.411 337.002C640.902 337.726 641.522 339.522 640.798 341.012C640.1 342.447 638.41 343.075 636.955 342.473L636.788 342.398C636.605 342.309 636.109 342.121 635.33 341.916C630.1 340.538 623.484 341.258 615.856 345.771C604.351 352.578 592.843 366.882 581.953 390.51C573.812 408.172 566.285 430.537 559.513 458.018C559.116 459.627 557.491 460.609 555.882 460.213C554.273 459.816 553.291 458.191 553.687 456.582C560.545 428.752 568.192 406.031 576.504 387.999C587.866 363.348 600.128 348.105 612.8 340.607Z" fill="white"/>
<path fill-rule="evenodd" clip-rule="evenodd" d="M1231.6 501.801L1184.9 520.801L682.6 519.501C678.3 519.501 674.7 514.201 674.8 507.701L674.9 487.001C674.9 480.501 678.5 475.301 682.8 475.301L1185.1 476.601L1231.7 495.801C1233.7 496.801 1233.7 501.001 1231.6 501.801Z" fill="#389AA3"/>
<path fill-rule="evenodd" clip-rule="evenodd" d="M692.761 455.801L816.261 458.301C817.917 458.334 819.233 459.704 819.199 461.361C819.167 462.958 817.892 464.239 816.316 464.298L816.139 464.3L695.694 461.861L695.6 521.705C695.598 523.303 694.347 524.607 692.772 524.695L692.595 524.7C690.998 524.698 689.694 523.447 689.605 521.872L689.6 521.695L689.7 458.795C689.703 457.177 690.986 455.864 692.582 455.802L692.761 455.801Z" fill="#79C7D1"/>
<path fill-rule="evenodd" clip-rule="evenodd" d="M867.6 493.699C869.257 493.699 870.6 495.042 870.6 496.699C870.6 498.297 869.351 499.603 867.776 499.694L867.6 499.699H754.4C752.743 499.699 751.4 498.356 751.4 496.699C751.4 495.102 752.649 493.796 754.224 493.704L754.4 493.699H867.6Z" fill="white"/>
<path fill-rule="evenodd" clip-rule="evenodd" d="M1398.8 520.301C1400.46 520.301 1401.8 521.644 1401.8 523.301C1401.8 524.898 1400.55 526.204 1398.98 526.296L1398.8 526.301H3.8999C2.24305 526.301 0.899902 524.958 0.899902 523.301C0.899902 521.703 2.14882 520.397 3.72363 520.306L3.8999 520.301H1398.8Z" fill="#79C7D1"/>
</svg>
