<svg width="1710" height="736" viewBox="0 0 1710 736" fill="none" xmlns="http://www.w3.org/2000/svg">
<path fill-rule="evenodd" clip-rule="evenodd" d="M689.28 365.289H311.28C287.207 365.286 264.119 374.847 247.097 391.869C230.074 408.89 220.51 431.976 220.51 456.049V641.879C220.51 665.952 230.074 689.039 247.097 706.06C264.119 723.081 287.207 732.642 311.28 732.639H689.28V365.289Z" fill="#79C7D1"/>
<path fill-rule="evenodd" clip-rule="evenodd" d="M681.59 391.068H385.59C367.873 391.068 353.51 405.431 353.51 423.148V676.288C353.51 694.006 367.873 708.368 385.59 708.368H681.59C683.247 708.368 684.59 707.025 684.59 705.368V394.068C684.59 392.412 683.247 391.068 681.59 391.068ZM678.59 397.067V702.368H385.59C371.186 702.368 359.51 690.692 359.51 676.288V423.148L359.514 422.717C359.744 408.512 371.33 397.068 385.59 397.068L678.59 397.067Z" fill="#ED675B"/>
<path fill-rule="evenodd" clip-rule="evenodd" d="M410.58 417.77C399.726 417.775 390.93 426.576 390.93 437.43V662C390.93 672.852 399.728 681.65 410.58 681.65H670.48V417.77H410.58Z" fill="white"/>
<circle cx="293.55" cy="472.789" r="32.67" fill="#FEBA91"/>
<path fill-rule="evenodd" clip-rule="evenodd" d="M293.55 447.869C279.787 447.869 268.63 459.026 268.63 472.789C268.63 486.552 279.787 497.709 293.55 497.709C307.313 497.709 318.47 486.552 318.47 472.789C318.47 459.026 307.313 447.869 293.55 447.869ZM293.55 453.869C303.999 453.869 312.47 462.34 312.47 472.789C312.47 483.238 303.999 491.709 293.55 491.709C283.101 491.709 274.63 483.238 274.63 472.789C274.63 462.34 283.101 453.869 293.55 453.869Z" fill="#ED675B"/>
<path fill-rule="evenodd" clip-rule="evenodd" d="M333.3 573.34H307.03V547.08H280.95V573.34H254.68V599.42H280.95V625.69H307.03V599.42H333.3V573.34Z" fill="#ED675B"/>
<rect x="306.67" y="658.949" width="24.94" height="24.94" fill="white"/>
<rect x="306.67" y="407.109" width="21.51" height="9.07" rx="4.535" fill="white"/>
<path fill-rule="evenodd" clip-rule="evenodd" d="M1050 558.22C1062.45 554.78 1099.82 556.93 1099.82 556.93C1099.82 556.93 1104.55 586.57 1134.9 597.45C1205.9 621.36 1229.54 573.25 1229.54 573.25C1234.12 589.25 1298.69 739.48 1370.85 730.89C1443.01 722.3 1434.42 525.29 1367.99 389.56C1301.56 253.83 1210.49 294.49 1177.85 301.36C1145.21 308.23 1103.97 312.08 1071.33 311.67C1058.11 311.724 1044.9 310.761 1031.82 308.79L1050 558.22Z" fill="#79C7D1"/>
<path fill-rule="evenodd" clip-rule="evenodd" d="M1309.69 704.001C1328.46 721.891 1349.29 733.441 1370.8 730.881C1416.32 725.461 1429.71 645.051 1416.7 552.341C1384.51 545.341 1353.24 590.201 1335.58 622.641C1322.34 647.001 1314 681.621 1309.69 704.001Z" fill="#ED675B"/>
<path fill-rule="evenodd" clip-rule="evenodd" d="M1175.37 452.521C1149.81 452.521 1128.99 471.693 1128.99 495.471C1128.99 519.25 1149.81 538.421 1175.37 538.421C1200.93 538.421 1221.75 519.25 1221.75 495.471C1221.75 471.693 1200.93 452.521 1175.37 452.521ZM1175.37 458.521C1197.72 458.521 1215.75 475.122 1215.75 495.471C1215.75 515.821 1197.72 532.421 1175.37 532.421C1153.02 532.421 1134.99 515.821 1134.99 495.471C1134.99 475.122 1153.02 458.521 1175.37 458.521Z" fill="#ED675B"/>
<ellipse cx="1175.37" cy="487.28" rx="43.38" ry="39.95" fill="#ED675B"/>
<path fill-rule="evenodd" clip-rule="evenodd" d="M1258.98 408.291C1244.42 408.291 1232.36 417.636 1232.36 429.591C1232.36 441.546 1244.42 450.891 1258.98 450.891C1273.54 450.891 1285.6 441.546 1285.6 429.591C1285.6 417.636 1273.54 408.291 1258.98 408.291ZM1258.98 414.291C1270.51 414.291 1279.6 421.333 1279.6 429.591C1279.6 437.849 1270.51 444.891 1258.98 444.891C1247.45 444.891 1238.36 437.849 1238.36 429.591C1238.36 421.333 1247.45 414.291 1258.98 414.291Z" fill="#ED675B"/>
<ellipse cx="1204.38" cy="386.011" rx="23.62" ry="18.3" fill="#FEBA91"/>
<ellipse cx="1255.64" cy="341.05" rx="23.62" ry="18.3" fill="#ED675B"/>
<ellipse cx="1311.47" cy="386.011" rx="23.62" ry="18.3" fill="white"/>
<ellipse cx="1074.86" cy="357.2" rx="29.64" ry="26.2" fill="white"/>
<path fill-rule="evenodd" clip-rule="evenodd" d="M1074.86 318.631C1051.06 318.631 1031.63 335.811 1031.63 357.201C1031.63 378.59 1051.06 395.771 1074.86 395.771C1098.66 395.771 1118.09 378.59 1118.09 357.201C1118.09 335.811 1098.66 318.631 1074.86 318.631ZM1074.86 324.631C1095.5 324.631 1112.09 339.301 1112.09 357.201C1112.09 375.101 1095.5 389.771 1074.86 389.771C1054.22 389.771 1037.63 375.101 1037.63 357.201C1037.63 339.301 1054.22 324.631 1074.86 324.631Z" fill="white"/>
<path fill-rule="evenodd" clip-rule="evenodd" d="M1252.96 305.109C1220.6 305.309 1193.12 317.51 1174.46 337.623C1158.13 355.225 1150.59 377.22 1154.96 393.687L1155.31 394.961C1162.23 420.199 1156.5 433.277 1136.82 444.861L1136.3 445.166L1136.41 445.111C1121.18 452.478 1110.53 462.053 1103.95 473.318C1096.1 486.743 1094.67 500.917 1096.96 513.731L1097.14 514.684L1097.28 515.374L1097.42 516.015L1097.55 516.608L1097.68 517.151L1097.81 517.643L1097.99 518.283L1098.13 518.759L1098.26 519.212L1098.44 519.788L1098.66 520.483L1098.84 521.01C1099.46 522.816 1100.25 524.82 1101.21 526.973C1103.96 533.108 1107.61 539.239 1112.28 544.971C1124.59 560.052 1141.67 569.666 1164.15 571.095C1192.76 572.448 1214.44 564.679 1229.5 550.378C1240.07 540.341 1246.64 527.239 1247.49 518.503L1247.52 518.103C1248.03 511.497 1250.24 503.942 1254.29 497.086L1254.59 496.586C1259.84 487.951 1267.64 481.065 1278.38 476.599L1278.78 476.434L1278.52 476.492C1297.57 472.313 1313.6 466.417 1327.06 457.601C1344.03 446.487 1355.69 431.342 1360.97 411.44C1366.68 389.899 1357.46 363.152 1337.49 341.68C1316.41 319.02 1286.45 305.187 1253.95 305.107L1252.96 305.109ZM1253 311.109C1284.15 310.919 1312.92 324.076 1333.1 345.767C1351.78 365.847 1360.3 390.57 1355.17 409.902C1350.29 428.305 1339.56 442.245 1323.77 452.581C1311.01 460.937 1295.63 466.596 1277.24 470.631C1277.07 470.667 1276.91 470.716 1276.76 470.779C1264.24 475.825 1255.13 483.885 1249.13 494.032C1244.72 501.493 1242.27 509.663 1241.6 516.977L1241.54 517.64C1240.98 524.858 1235.05 536.836 1225.37 546.027C1211.52 559.183 1191.43 566.379 1164.48 565.105C1143.81 563.789 1128.23 555.023 1116.93 541.178C1112.61 535.883 1109.23 530.2 1106.69 524.521C1105.8 522.539 1105.08 520.704 1104.52 519.064L1104.41 518.733L1104.21 518.119L1104.04 517.574L1103.85 516.939L1103.75 516.612L1103.59 516.033C1103.38 515.224 1103.17 514.279 1102.97 513.211C1100.77 501.543 1101.99 488.561 1109.13 476.345C1115.1 466.135 1124.84 457.373 1139.03 450.512L1139.22 450.408C1161.9 437.279 1168.96 421.277 1160.87 392.558C1156.84 378.274 1163.67 358.072 1178.86 341.704C1196.4 322.8 1222.3 311.299 1253 311.109Z" fill="#ED675B"/>
<path fill-rule="evenodd" clip-rule="evenodd" d="M1099.85 510.471C1101.45 510.471 1102.75 511.72 1102.84 513.294L1102.85 513.471V556.151C1102.85 557.808 1101.51 559.151 1099.85 559.151C1098.25 559.151 1096.95 557.902 1096.86 556.327L1096.85 556.151L1096.85 516.471H1050.03C1048.43 516.471 1047.13 515.222 1047.04 513.647L1047.03 513.471C1047.03 511.873 1048.28 510.567 1049.85 510.476L1050.03 510.471H1099.85Z" fill="#ED675B"/>
<path fill-rule="evenodd" clip-rule="evenodd" d="M1229.35 544.621C1230.95 544.621 1232.25 545.87 1232.34 547.445L1232.35 547.621V570.521C1232.35 572.178 1231.01 573.521 1229.35 573.521C1227.75 573.521 1226.45 572.272 1226.36 570.697L1226.35 570.521V547.621C1226.35 545.964 1227.69 544.621 1229.35 544.621Z" fill="#ED675B"/>
<path fill-rule="evenodd" clip-rule="evenodd" d="M644.85 732.23H1004.35C1004.35 732.23 1076.62 727.18 1076.62 638.3V27.77C1076.62 12.43 1066 0 1053 0H668.52C655.45 0 644.85 12.43 644.85 27.77V732.23Z" fill="#ED675B"/>
<path fill-rule="evenodd" clip-rule="evenodd" d="M1076.62 39.92H1038.2V20.27C1038.26 12.994 1035.99 5.88921 1031.72 0H1023.67C1028.84 4.56 1032.2 12 1032.2 20.27V39.92H986.77V0H980.77V39.92H696.41V0H690.41V39.92H644.85V45.92H1032.2V637.31C1032.2 712.25 981.32 726.31 965.72 728.85C964.113 729.116 963.012 730.617 963.24 732.23H977.36C988.64 728.789 999.076 723.03 1008 715.32C1028.06 697.76 1038.23 671.51 1038.23 637.32V45.92H1076.65L1076.62 39.92Z" fill="white"/>
<path fill-rule="evenodd" clip-rule="evenodd" d="M689.28 352.479H924.61C924.61 352.479 983.43 353.199 983.43 274.709V78.9994C983.43 71.3294 978.32 65.1094 972.02 65.1094H700.69C694.39 65.1094 689.28 71.3294 689.28 78.9994L689.28 352.479Z" fill="#389AA3"/>
<rect x="739.08" y="102.01" width="198.37" height="214.11" rx="8.1" fill="white"/>
<path fill-rule="evenodd" clip-rule="evenodd" d="M929.35 99.0098H747.18C741.05 99.0098 736.08 103.979 736.08 110.11V308.02C736.08 314.15 741.05 319.12 747.18 319.12H929.35C935.48 319.12 940.45 314.15 940.45 308.02V110.11C940.45 103.979 935.48 99.0098 929.35 99.0098ZM747.18 105.01H929.35C932.167 105.01 934.45 107.293 934.45 110.11V308.02C934.45 310.836 932.167 313.12 929.35 313.12H747.18C744.363 313.12 742.08 310.836 742.08 308.02V110.11C742.08 107.293 744.363 105.01 747.18 105.01Z" fill="#389AA3"/>
<ellipse cx="882.256" cy="480.233" rx="19.65" ry="21.73" transform="rotate(-9.53 882.256 480.233)" fill="#389AA3"/>
<ellipse cx="930.838" cy="442.463" rx="19.7382" ry="21.8276" transform="rotate(-9.74364 930.838 442.463)" fill="#389AA3"/>
<path fill-rule="evenodd" clip-rule="evenodd" d="M915.165 406.837L850.907 458.625C836.044 470.607 833.249 493.712 844.539 510.327L844.868 510.803C856.385 527.206 877.617 530.896 892.474 518.905L956.723 467.106C971.59 455.121 974.388 432.015 963.091 415.404L962.749 414.909C951.246 398.528 930.014 394.844 915.165 406.837ZM957.839 418.357L958.142 418.796C967.708 432.861 965.335 452.457 952.957 462.435L888.707 514.235C876.622 523.989 859.35 520.987 849.791 507.374L849.488 506.935C839.929 492.866 842.299 473.272 854.673 463.296L918.932 411.506C931.012 401.751 948.282 404.748 957.839 418.357Z" fill="white"/>
<path fill-rule="evenodd" clip-rule="evenodd" d="M813.457 583.643C819.387 580.107 827.06 582.047 830.596 587.976C834.077 593.814 832.25 601.343 826.533 604.949L826.262 605.115L792.692 625.135C786.763 628.671 779.09 626.731 775.554 620.801C772.073 614.963 773.9 607.435 779.617 603.829L779.887 603.663L813.457 583.643Z" fill="#389AA3"/>
<path fill-rule="evenodd" clip-rule="evenodd" d="M748.882 583.529C754.874 580.101 762.511 582.179 765.94 588.171C769.315 594.071 767.352 601.566 761.571 605.067L761.298 605.229L726.308 625.249C720.316 628.677 712.679 626.599 709.25 620.607C705.875 614.707 707.838 607.213 713.618 603.711L713.892 603.549L748.882 583.529Z" fill="#389AA3"/>
<path fill-rule="evenodd" clip-rule="evenodd" d="M798.65 446.521H761.42V409.391H726.14V446.521H688.9V481.701H726.14V518.831H761.42V481.701H798.65V446.521Z" fill="#389AA3"/>
<path fill-rule="evenodd" clip-rule="evenodd" d="M743.78 452.461C737.332 452.461 732.1 457.674 732.1 464.111C732.1 470.547 737.332 475.761 743.78 475.761C750.228 475.761 755.46 470.547 755.46 464.111C755.46 457.674 750.228 452.461 743.78 452.461ZM743.78 458.461C746.919 458.461 749.46 460.993 749.46 464.111C749.46 467.229 746.919 469.761 743.78 469.761C740.641 469.761 738.1 467.229 738.1 464.111C738.1 460.993 740.641 458.461 743.78 458.461Z" fill="#ED675B"/>
<path fill-rule="evenodd" clip-rule="evenodd" d="M761.84 99.0098C763.438 99.0098 764.744 100.259 764.835 101.833L764.84 102.01V314.61C764.84 316.267 763.497 317.61 761.84 317.61C760.242 317.61 758.936 316.361 758.845 314.786L758.84 314.61V102.01C758.84 100.353 760.183 99.0098 761.84 99.0098Z" fill="#389AA3"/>
<path fill-rule="evenodd" clip-rule="evenodd" d="M721.8 211.289C723.457 211.289 724.8 212.632 724.8 214.289C724.8 215.887 723.551 217.193 721.976 217.284L721.8 217.289H703.59C701.933 217.289 700.59 215.946 700.59 214.289C700.59 212.691 701.839 211.385 703.414 211.294L703.59 211.289H721.8Z" fill="white"/>
<ellipse cx="712.69" cy="191.109" rx="6.88" ry="8.08" fill="#ED675B"/>
<path fill-rule="evenodd" clip-rule="evenodd" d="M951.197 581.613C952.665 580.983 954.358 581.616 955.063 583.027L955.137 583.187L979.907 640.917C980.56 642.44 979.856 644.204 978.333 644.857C976.865 645.487 975.172 644.854 974.467 643.443L974.393 643.283L949.623 585.553C948.97 584.03 949.674 582.266 951.197 581.613Z" fill="white"/>
<path fill-rule="evenodd" clip-rule="evenodd" d="M930.887 593.623C932.355 592.993 934.048 593.626 934.753 595.037L934.827 595.197L959.597 652.927C960.25 654.449 959.546 656.213 958.023 656.867C956.555 657.497 954.862 656.864 954.157 655.453L954.083 655.293L929.313 597.563C928.66 596.04 929.364 594.276 930.887 593.623Z" fill="white"/>
<path fill-rule="evenodd" clip-rule="evenodd" d="M910.567 605.632C912.035 605.003 913.728 605.635 914.433 607.047L914.507 607.207L939.277 664.937C939.93 666.459 939.226 668.223 937.703 668.876C936.235 669.506 934.542 668.874 933.837 667.462L933.763 667.302L908.993 609.572C908.34 608.05 909.044 606.286 910.567 605.632Z" fill="white"/>
<path fill-rule="evenodd" clip-rule="evenodd" d="M890.247 617.642C891.715 617.012 893.408 617.645 894.113 619.056L894.187 619.216L918.957 676.946C919.61 678.469 918.905 680.233 917.383 680.886C915.915 681.516 914.222 680.883 913.517 679.472L913.443 679.312L888.673 621.582C888.02 620.06 888.724 618.296 890.247 617.642Z" fill="white"/>
<path fill-rule="evenodd" clip-rule="evenodd" d="M869.927 629.642C871.395 629.012 873.088 629.645 873.793 631.056L873.867 631.216L898.637 688.956C899.29 690.479 898.585 692.243 897.063 692.896C895.594 693.526 893.902 692.893 893.197 691.482L893.123 691.322L868.353 633.582C867.7 632.059 868.405 630.295 869.927 629.642Z" fill="white"/>
<path fill-rule="evenodd" clip-rule="evenodd" d="M849.617 641.652C851.085 641.022 852.778 641.655 853.483 643.066L853.557 643.226L878.327 700.956C878.98 702.479 878.275 704.243 876.753 704.896C875.285 705.526 873.592 704.893 872.887 703.482L872.813 703.322L848.043 645.592C847.39 644.069 848.094 642.305 849.617 641.652Z" fill="white"/>
<path fill-rule="evenodd" clip-rule="evenodd" d="M1706.94 729.58C1708.6 729.58 1709.94 730.923 1709.94 732.58C1709.94 734.178 1708.69 735.484 1707.12 735.575L1706.94 735.58H3C1.34315 735.58 0 734.237 0 732.58C0 730.982 1.24892 729.676 2.82373 729.585L3 729.58H1706.94Z" fill="#389AA3"/>
</svg>
