<svg width="27" height="33" viewBox="0 0 27 33" fill="none" xmlns="http://www.w3.org/2000/svg">
<path d="M13.5 4.125L15.75 9.625V23.375L13.5 28.875" stroke="#79C7D1" stroke-linecap="round" stroke-linejoin="round"/>
<path d="M13.5 4.125L15.75 9.625V23.375L13.5 28.875" stroke="url(#paint0_linear)" stroke-linecap="round" stroke-linejoin="round"/>
<path d="M13.5 4.125L11.25 9.625V23.375L13.5 28.875" stroke="#79C7D1" stroke-linecap="round" stroke-linejoin="round"/>
<path d="M13.5 4.125L11.25 9.625V23.375L13.5 28.875" stroke="url(#paint1_linear)" stroke-linecap="round" stroke-linejoin="round"/>
<path d="M13.5 28.875L19.125 23.375V9.625L13.5 4.125L7.875 9.625V23.375L13.5 28.875Z" stroke="#79C7D1" stroke-linecap="round" stroke-linejoin="round"/>
<path d="M13.5 28.875L19.125 23.375V9.625L13.5 4.125L7.875 9.625V23.375L13.5 28.875Z" stroke="url(#paint2_linear)" stroke-linecap="round" stroke-linejoin="round"/>
<path d="M7.875 9.625H19.125" stroke="#79C7D1" stroke-linecap="round" stroke-linejoin="round"/>
<path d="M7.875 9.625H19.125" stroke="url(#paint3_linear)" stroke-linecap="round" stroke-linejoin="round"/>
<path d="M7.875 23.375H19.125" stroke="#79C7D1" stroke-linecap="round" stroke-linejoin="round"/>
<path d="M7.875 23.375H19.125" stroke="url(#paint4_linear)" stroke-linecap="round" stroke-linejoin="round"/>
<defs>
<linearGradient id="paint0_linear" x1="14.625" y1="4.125" x2="14.625" y2="28.875" gradientUnits="userSpaceOnUse">
<stop stop-color="#F19A92"/>
<stop offset="1" stop-color="white" stop-opacity="0"/>
</linearGradient>
<linearGradient id="paint1_linear" x1="12.375" y1="4.125" x2="12.375" y2="28.875" gradientUnits="userSpaceOnUse">
<stop stop-color="#F19A92"/>
<stop offset="1" stop-color="white" stop-opacity="0"/>
</linearGradient>
<linearGradient id="paint2_linear" x1="13.5" y1="4.125" x2="13.5" y2="28.875" gradientUnits="userSpaceOnUse">
<stop stop-color="#F19A92"/>
<stop offset="1" stop-color="white" stop-opacity="0"/>
</linearGradient>
<linearGradient id="paint3_linear" x1="13.5" y1="9.625" x2="13.5" y2="10.625" gradientUnits="userSpaceOnUse">
<stop stop-color="#F19A92"/>
<stop offset="1" stop-color="white" stop-opacity="0"/>
</linearGradient>
<linearGradient id="paint4_linear" x1="13.5" y1="23.375" x2="13.5" y2="24.375" gradientUnits="userSpaceOnUse">
<stop stop-color="#91D0D8"/>
<stop offset="1" stop-color="white" stop-opacity="0"/>
</linearGradient>
</defs>
</svg>
