<?xml version="1.0" encoding="utf-8"?>
<svg width="1841" height="595" viewBox="0 0 1841 595" fill="none" xmlns="http://www.w3.org/2000/svg">
  <path fill-rule="evenodd" clip-rule="evenodd" d="M1268.49 273.894C1269.16 272.377 1270.93 271.687 1272.45 272.354C1273.91 272.996 1274.6 274.665 1274.05 276.144L1273.99 276.307L1264 299.047C1263.33 300.564 1261.56 301.253 1260.04 300.587C1258.58 299.944 1257.89 298.276 1258.44 296.797L1258.5 296.634L1268.49 273.894Z" fill="#ED675B"/>
  <path fill-rule="evenodd" clip-rule="evenodd" d="M1260.06 326.151C1261.7 326.389 1262.84 327.911 1262.6 329.551L1247.24 435.55C1247 437.189 1245.48 438.326 1243.84 438.089C1242.2 437.851 1241.06 436.329 1241.3 434.689L1256.66 328.688C1256.9 327.049 1258.42 325.913 1260.06 326.151Z" fill="#ED675B"/>
  <path fill-rule="evenodd" clip-rule="evenodd" d="M1318.72 342.724C1320.29 343.246 1321.14 344.944 1320.62 346.517L1285.04 453.708L1279.32 471.113L1278.3 474.263C1278.15 474.71 1278.01 475.153 1277.86 475.592L1277.43 476.893C1277.35 477.108 1277.28 477.321 1277.21 477.533L1276.77 478.793L1276.33 480.026C1276.25 480.229 1276.18 480.432 1276.1 480.632L1275.66 481.825C1275.58 482.021 1275.51 482.217 1275.43 482.411L1274.98 483.563C1274.91 483.753 1274.83 483.942 1274.75 484.13L1274.3 485.242C1273.38 487.441 1272.43 489.483 1271.44 491.374L1270.94 492.306C1267.1 499.362 1262.61 504.216 1256.74 507.23C1255.27 507.987 1253.46 507.405 1252.7 505.931C1251.94 504.457 1252.53 502.649 1254 501.892C1260.09 498.768 1264.62 492.713 1268.69 483.068L1269.13 482.002L1269.57 480.907C1269.65 480.722 1269.72 480.536 1269.79 480.348L1270.23 479.21L1270.66 478.042C1270.8 477.648 1270.95 477.249 1271.09 476.845L1271.52 475.618C1271.59 475.412 1271.66 475.203 1271.73 474.994L1272.16 473.723L1275.04 464.894L1282.82 441.33L1314.92 344.626C1315.45 343.053 1317.14 342.202 1318.72 342.724Z" fill="#ED675B"/>
  <path fill-rule="evenodd" clip-rule="evenodd" d="M1203.17 159.324C1214.85 123.079 1253.7 103.163 1289.94 114.84C1325.82 126.4 1345.7 164.591 1334.74 200.599L1334.4 201.689L1304.47 286.449C1303.95 287.924 1302.39 288.742 1300.89 288.355L1300.72 288.305L1270.08 278.425C1268.56 277.935 1267.7 276.344 1268.1 274.816L1268.15 274.647L1276.43 249.023L1275.61 249.113C1274.07 249.267 1272.53 249.369 1270.99 249.417L1269.83 249.443L1268.87 249.45C1261.66 249.441 1254.5 248.309 1247.65 246.096C1211.77 234.534 1191.89 196.342 1202.83 160.412L1203.17 159.324ZM1288.1 120.551C1255.01 109.891 1219.54 128.073 1208.88 161.164C1198.22 194.254 1216.4 229.722 1249.49 240.385C1255.75 242.408 1262.29 243.442 1268.87 243.45C1272.68 243.451 1276.48 243.096 1280.23 242.392C1282.41 241.982 1284.24 243.993 1283.68 246.101L1283.63 246.264L1274.78 273.636L1299.78 281.699L1328.71 199.77C1339.16 167.338 1321.9 132.623 1290.06 121.217L1289.09 120.879L1288.1 120.551ZM1268.78 149.519L1269.27 149.524C1278.97 149.675 1288.05 154.371 1293.79 162.226C1299.41 169.929 1301.16 179.782 1298.55 188.953L1298.41 189.435L1298.26 189.922C1293.11 205.855 1276.26 214.744 1260.29 210.153L1259.98 210.062L1259.8 210.045C1259.68 210.03 1259.56 210.007 1259.45 209.977L1259.27 209.925C1244.77 205.247 1235.83 190.708 1238.2 175.656C1240.55 160.754 1253.28 149.738 1268.32 149.523L1268.78 149.519ZM1268.78 155.52C1256.5 155.517 1246.04 164.455 1244.13 176.589C1242.26 188.468 1249.12 199.95 1260.38 203.966L1260.52 204.015L1260.62 204.025C1260.74 204.041 1260.86 204.064 1260.98 204.094L1261.15 204.145C1274.13 208.334 1288.03 201.326 1292.41 188.5L1292.54 188.109L1292.67 187.677C1294.93 180.194 1293.55 172.081 1288.94 165.763C1284.24 159.325 1276.75 155.519 1268.78 155.52Z" fill="#ED675B"/>
  <path fill-rule="evenodd" clip-rule="evenodd" d="M1368.64 156.566C1393.45 146.829 1421.64 152.257 1441.06 170.507C1460.28 188.575 1467.49 216.007 1459.69 241.172L1459.45 241.934L1459.26 242.533C1452.68 262.315 1437.5 278.062 1417.96 285.358C1399.04 292.424 1378.02 290.825 1360.43 281.078L1359.85 280.754L1359.39 280.49L1321.19 294.253C1320.7 294.428 1320.18 294.474 1319.68 294.389L1319.46 294.345L1319.25 294.285L1304.43 289.505C1302.91 289.015 1302.05 287.426 1302.45 285.899L1302.5 285.73L1325.07 215.669L1325.11 215.249C1327.16 189.524 1343.42 167.118 1367.18 157.16L1367.9 156.862L1368.64 156.566ZM1436.95 174.879C1419.22 158.217 1393.48 153.262 1370.84 162.151C1348.19 171.04 1332.69 192.183 1331.03 216.455C1331.02 216.617 1331 216.778 1330.96 216.936L1330.9 217.171L1309.13 284.715L1320.12 288.26L1358.68 274.368C1359.4 274.108 1360.19 274.136 1360.89 274.434L1361.07 274.522L1361.25 274.624C1377.72 284.586 1397.83 286.47 1415.86 279.737C1433.51 273.147 1447.26 259.005 1453.36 241.228L1453.56 240.653L1453.75 240.079C1461.22 216.926 1454.68 191.541 1436.95 174.879ZM1403.36 191.317C1419.59 196.598 1428.5 214.011 1423.29 230.267C1419.45 242.217 1408.79 250.676 1396.28 251.695C1383.78 252.713 1371.89 246.09 1366.17 234.917C1360.46 223.745 1362.04 210.228 1370.18 200.68C1378.33 191.131 1391.42 187.435 1403.36 191.317ZM1374.75 204.573C1368.18 212.274 1366.9 223.174 1371.51 232.184C1376.12 241.194 1385.71 246.536 1395.8 245.714C1405.89 244.893 1414.48 238.071 1417.57 228.434C1421.78 215.324 1414.59 201.282 1401.5 197.023C1391.88 193.892 1381.32 196.873 1374.75 204.573Z" fill="#ED675B"/>
  <path fill-rule="evenodd" clip-rule="evenodd" d="M1319.18 337.845C1320.65 338.627 1321.2 340.444 1320.42 341.905L1284.48 409.191L1253.16 467.969C1252.38 469.432 1250.57 469.988 1249.1 469.21C1247.64 468.432 1247.08 466.616 1247.86 465.153L1267.18 428.865L1295.2 376.359L1315.12 339.076C1315.91 337.615 1317.72 337.064 1319.18 337.845Z" fill="#ED675B"/>
  <path fill-rule="evenodd" clip-rule="evenodd" d="M1253.5 326.949C1254 325.372 1255.69 324.506 1257.27 325.015C1258.79 325.506 1259.65 327.095 1259.25 328.622L1259.21 328.791L1240.21 387.671C1239.7 389.248 1238.01 390.114 1236.43 389.605C1234.91 389.114 1234.05 387.525 1234.45 385.998L1234.5 385.829L1253.5 326.949Z" fill="#ED675B"/>
  <path fill-rule="evenodd" clip-rule="evenodd" d="M1305.15 283.259C1305.82 281.905 1307.39 281.269 1308.8 281.748L1308.97 281.811L1323.26 287.621C1324.8 288.245 1325.53 289.995 1324.91 291.53C1324.31 293.01 1322.66 293.75 1321.17 293.241L1321 293.18L1308.96 288.283L1308.87 288.398C1305.48 292.541 1298.61 297.718 1291.43 301.103L1290.97 301.316C1289.47 302.008 1287.69 301.349 1286.99 299.844C1286.3 298.338 1286.96 296.557 1288.47 295.865C1289.16 295.547 1289.85 295.209 1290.53 294.855L1291.35 294.423L1292.15 293.978C1292.42 293.827 1292.69 293.674 1292.95 293.519L1293.74 293.05L1294.52 292.572C1294.65 292.492 1294.77 292.411 1294.9 292.33L1295.66 291.841C1296.16 291.513 1296.64 291.181 1297.12 290.848L1297.82 290.347C1298.86 289.594 1299.82 288.839 1300.7 288.104L1301.27 287.618C1301.45 287.457 1301.63 287.297 1301.8 287.139L1302.31 286.669C1302.39 286.591 1302.47 286.514 1302.55 286.438L1303.01 285.984C1303.97 285.015 1304.68 284.138 1305.07 283.422L1305.15 283.259Z" fill="#ED675B"/>
  <path fill-rule="evenodd" clip-rule="evenodd" d="M1271.58 324.771C1273.23 324.627 1274.68 325.848 1274.83 327.499C1275.3 332.858 1279.48 337.144 1284.82 337.744C1290.17 338.345 1295.2 335.094 1296.85 329.969C1297 329.488 1297.12 328.998 1297.21 328.5L1297.27 328.126C1297.5 326.486 1299.02 325.346 1300.66 325.58C1302.3 325.814 1303.44 327.333 1303.21 328.973C1303.07 329.936 1302.85 330.885 1302.56 331.808C1300.04 339.649 1292.34 344.626 1284.15 343.707C1275.97 342.787 1269.57 336.226 1268.85 328.021C1268.71 326.371 1269.93 324.916 1271.58 324.771Z" fill="#ED675B"/>
  <path fill-rule="evenodd" clip-rule="evenodd" d="M1325.06 249.161L1325.23 249.168L1359.92 251.728C1361.52 251.846 1362.73 253.19 1362.7 254.769L1362.69 254.946L1359.35 299.306C1359.23 300.958 1357.79 302.196 1356.14 302.072C1354.54 301.952 1353.33 300.608 1353.36 299.031L1353.37 298.855L1356.48 257.49L1327.78 255.371L1324.47 299.305C1324.35 300.899 1323.01 302.107 1321.43 302.08L1321.26 302.072C1319.66 301.952 1318.45 300.609 1318.48 299.031L1318.49 298.855L1322.02 251.935C1322.14 250.344 1323.48 249.136 1325.06 249.161Z" fill="#ED675B"/>
  <path fill-rule="evenodd" clip-rule="evenodd" d="M1319.56 324.74C1321.15 324.859 1322.36 326.203 1322.33 327.78L1322.32 327.956L1307.85 520.196C1307.73 521.848 1306.29 523.087 1304.64 522.963C1303.04 522.843 1301.83 521.499 1301.86 519.922L1301.87 519.746L1316.34 327.506C1316.46 325.913 1317.8 324.704 1319.38 324.731L1319.56 324.74Z" fill="#ED675B"/>
  <path fill-rule="evenodd" clip-rule="evenodd" d="M1353.7 325.589C1355.29 325.709 1356.5 327.052 1356.47 328.629L1356.46 328.806L1342.11 519.656C1341.99 521.308 1340.55 522.546 1338.9 522.422C1337.3 522.302 1336.09 520.959 1336.12 519.382L1336.13 519.206L1350.48 328.356C1350.6 326.763 1351.94 325.554 1353.52 325.581L1353.7 325.589Z" fill="#ED675B"/>
  <path fill-rule="evenodd" clip-rule="evenodd" d="M1320.18 267.38L1361.53 270.49L1370.39 152.78C1372.98 118.29 1367.2 111.07 1351.97 109.92C1336.74 108.77 1331.18 121.17 1328.58 155.67L1320.18 267.38Z" fill="#ED675B"/>
  <path fill-rule="evenodd" clip-rule="evenodd" d="M1349.77 134.901L1349.95 134.909L1375.57 136.839C1381.83 137.305 1385.61 141.531 1386.81 150.028L1386.91 150.767C1386.93 150.892 1386.94 151.018 1386.96 151.144L1387.03 151.915C1387.13 152.956 1387.19 154.053 1387.22 155.208L1387.24 156.084C1387.24 156.38 1387.24 156.68 1387.24 156.982L1387.23 157.902C1387.23 158.057 1387.22 158.213 1387.22 158.37L1387.19 159.322L1387.15 160.296C1387.14 160.46 1387.13 160.625 1387.13 160.791L1387.07 161.797L1386.99 162.825L1380.45 249.825C1380.33 251.478 1378.89 252.716 1377.24 252.592C1375.64 252.472 1374.43 251.129 1374.46 249.552L1374.47 249.376L1381.04 161.894L1381.11 160.959L1381.16 160.052L1381.2 159.173L1381.24 158.321L1381.26 157.496C1381.26 157.361 1381.26 157.227 1381.27 157.094L1381.27 156.308L1381.27 155.549L1381.26 154.815L1381.24 154.107C1381.23 153.991 1381.23 153.876 1381.22 153.762L1381.19 153.092L1381.14 152.446L1381.09 151.824C1381.08 151.723 1381.07 151.622 1381.06 151.522L1380.99 150.936L1380.91 150.374L1380.82 149.835C1380.81 149.747 1380.79 149.66 1380.78 149.574L1380.68 149.069C1380.61 148.739 1380.53 148.425 1380.45 148.125L1380.32 147.686C1380.3 147.615 1380.28 147.544 1380.25 147.475L1380.11 147.067L1379.96 146.681C1379.89 146.493 1379.81 146.313 1379.72 146.14L1379.55 145.804C1378.53 143.905 1377.09 143.012 1375.28 142.835L1349.5 140.892C1347.84 140.768 1346.6 139.327 1346.73 137.675C1346.85 136.082 1348.19 134.874 1349.77 134.901Z" fill="#ED675B"/>
  <circle cx="1377.46" cy="249.571" r="6.52" fill="#ED675B"/>
  <path fill-rule="evenodd" clip-rule="evenodd" d="M1167.94 162.063C1171.28 161.571 1174.59 163.126 1176.32 165.959L1207.07 218.481C1214.03 230.341 1218.71 243.399 1220.87 256.984L1221.02 257.933L1227.02 298.643C1227.26 300.282 1226.13 301.807 1224.49 302.048C1222.91 302.281 1221.43 301.236 1221.11 299.691L1221.08 299.518L1215.08 258.815C1213.16 245.968 1208.84 233.598 1202.37 222.338L1201.89 221.516L1171.27 169.2C1170.78 168.331 1169.8 167.853 1168.81 167.999C1167.88 168.136 1167.12 168.797 1166.84 169.712L1166.8 169.887L1152.73 228.817C1149.71 241.451 1149.08 254.535 1150.87 267.395L1151.01 268.359L1155.52 298.679C1155.76 300.318 1154.63 301.844 1152.99 302.088C1151.41 302.323 1149.94 301.279 1149.61 299.735L1149.58 299.562L1145.07 269.241C1143.05 255.637 1143.6 241.779 1146.67 228.38L1146.89 227.424L1160.95 168.524C1161.73 165.135 1164.5 162.568 1167.94 162.063Z" fill="#ED675B"/>
  <path fill-rule="evenodd" clip-rule="evenodd" d="M1227.87 324.763C1229.45 324.529 1230.92 325.572 1231.25 327.116L1231.28 327.29L1259.04 514.079C1259.28 515.672 1259.38 517.283 1259.35 518.894C1259.31 520.551 1257.94 521.865 1256.29 521.83C1254.63 521.795 1253.32 520.424 1253.35 518.768C1253.37 517.712 1253.32 516.657 1253.19 515.604L1253.1 514.972L1225.34 328.172C1225.1 326.533 1226.23 325.007 1227.87 324.763Z" fill="#ED675B"/>
  <path fill-rule="evenodd" clip-rule="evenodd" d="M1156.54 325.613C1158.12 325.378 1159.6 326.422 1159.92 327.966L1159.95 328.14L1188.22 518.39C1188.46 520.028 1187.33 521.554 1185.69 521.798C1184.11 522.033 1182.64 520.989 1182.31 519.445L1182.28 519.271L1154.01 329.021C1153.77 327.383 1154.9 325.857 1156.54 325.613Z" fill="#ED675B"/>
  <path fill-rule="evenodd" clip-rule="evenodd" d="M1197.73 208.431L1173.88 167.681C1172.78 165.734 1170.59 164.666 1168.38 164.991C1166.16 165.317 1164.38 166.969 1163.88 169.151L1153 214.931C1164.86 210.541 1185.82 204.121 1197.73 208.431Z" fill="#ED675B"/>
  <path fill-rule="evenodd" clip-rule="evenodd" d="M1216.64 251.001C1216.17 248.871 1215.64 246.761 1215.04 244.671C1205.04 243.541 1192.54 244.611 1183.76 254.111C1170.82 246.541 1156.35 251.261 1146.97 256.111C1147.04 258.331 1147.18 260.561 1147.38 262.781C1155.56 258.101 1169.84 252.301 1181.57 259.781L1187.4 299.051L1193.59 299.851L1187.5 258.901C1195.21 249.921 1207.49 249.611 1216.64 251.001Z" fill="#ED675B"/>
  <path fill-rule="evenodd" clip-rule="evenodd" d="M1197.73 329.371H1191.66L1219.8 518.691L1225.88 518.831L1197.73 329.371Z" fill="#ED675B"/>
  <path fill-rule="evenodd" clip-rule="evenodd" d="M1263.18 373.008C1264.21 371.709 1266.1 371.491 1267.39 372.52C1268.64 373.51 1268.89 375.292 1267.99 376.582L1267.88 376.735L1178.41 489.615C1177.38 490.913 1175.5 491.131 1174.2 490.102C1172.95 489.113 1172.7 487.33 1173.6 486.04L1173.71 485.888L1263.18 373.008Z" style="fill: rgb(63, 82, 155);"/>
  <path fill-rule="evenodd" clip-rule="evenodd" d="M1265.9 417.343C1266.93 416.042 1268.82 415.82 1270.12 416.846C1271.37 417.833 1271.62 419.615 1270.73 420.907L1270.61 421.06L1191.71 521.04C1190.69 522.34 1188.8 522.563 1187.5 521.536C1186.25 520.549 1186 518.767 1186.89 517.475L1187 517.323L1265.9 417.343Z" style="fill: rgb(63, 82, 155);"/>
  <path fill-rule="evenodd" clip-rule="evenodd" d="M1272.86 455.327C1273.89 454.033 1275.78 453.824 1277.07 454.859C1278.32 455.854 1278.56 457.638 1277.66 458.924L1277.54 459.076L1228.22 520.706C1227.19 521.999 1225.3 522.209 1224.01 521.174C1222.76 520.178 1222.52 518.394 1223.42 517.109L1223.54 516.957L1272.86 455.327Z" style="fill: rgb(63, 82, 155);"/>
  <path fill-rule="evenodd" clip-rule="evenodd" d="M1270.63 500.143C1271.66 498.842 1273.55 498.618 1274.85 499.644C1276.1 500.631 1276.35 502.413 1275.46 503.705L1275.35 503.858L1261.33 521.638C1260.3 522.939 1258.41 523.162 1257.11 522.136C1255.86 521.149 1255.61 519.367 1256.5 518.075L1256.61 517.923L1270.63 500.143Z" style="fill: rgb(63, 82, 155);"/>
  <path fill-rule="evenodd" clip-rule="evenodd" d="M1258.66 332.748C1259.7 331.458 1261.59 331.256 1262.88 332.296C1264.12 333.296 1264.36 335.08 1263.45 336.363L1263.34 336.514L1167.34 455.564C1166.3 456.854 1164.41 457.056 1163.12 456.016C1161.88 455.016 1161.64 453.232 1162.55 451.949L1162.66 451.798L1258.66 332.748Z" style="fill: rgb(63, 82, 155);"/>
  <path fill-rule="evenodd" clip-rule="evenodd" d="M1147.53 403.502C1148.76 402.485 1150.56 402.608 1151.63 403.753L1151.76 403.895L1245.53 516.915C1246.59 518.19 1246.41 520.081 1245.14 521.139C1243.91 522.157 1242.11 522.033 1241.04 520.888L1240.91 520.746L1147.14 407.726C1146.08 406.451 1146.26 404.56 1147.53 403.502Z" style="fill: rgb(63, 82, 155);"/>
  <path fill-rule="evenodd" clip-rule="evenodd" d="M1174.06 485.512C1175.25 484.451 1177.05 484.509 1178.17 485.614L1178.3 485.752L1206.37 517.182C1207.47 518.417 1207.36 520.314 1206.13 521.418C1204.94 522.479 1203.14 522.421 1202.02 521.316L1201.89 521.178L1173.82 489.748C1172.72 488.513 1172.83 486.616 1174.06 485.512Z" style="fill: rgb(63, 82, 155);"/>
  <path fill-rule="evenodd" clip-rule="evenodd" d="M1226.36 326.266C1227.59 325.252 1229.38 325.381 1230.46 326.528L1230.58 326.671L1266.49 370.181C1267.55 371.458 1267.37 373.349 1266.09 374.404C1264.86 375.418 1263.07 375.29 1261.99 374.142L1261.87 374L1225.96 330.49C1224.9 329.212 1225.08 327.321 1226.36 326.266Z" style="fill: rgb(63, 82, 155);"/>
  <path fill-rule="evenodd" clip-rule="evenodd" d="M1193.92 326.771C1195.14 325.748 1196.94 325.863 1198.02 327.002L1198.15 327.143L1269.39 412.143C1270.45 413.413 1270.29 415.305 1269.02 416.37C1267.8 417.393 1266 417.278 1264.92 416.139L1264.79 415.997L1193.55 330.997C1192.49 329.728 1192.65 327.835 1193.92 326.771Z" style="fill: rgb(63, 82, 155);"/>
  <path fill-rule="evenodd" clip-rule="evenodd" d="M1158.52 326.271C1159.75 325.254 1161.55 325.378 1162.62 326.522L1162.75 326.665L1275.67 462.765C1276.73 464.04 1276.55 465.931 1275.28 466.989C1274.05 468.006 1272.25 467.883 1271.18 466.738L1271.05 466.596L1158.13 330.496C1157.07 329.221 1157.25 327.329 1158.52 326.271Z" style="fill: rgb(63, 82, 155);"/>
  <path fill-rule="evenodd" clip-rule="evenodd" d="M1123.79 326.762C1125.02 325.744 1126.82 325.868 1127.89 327.013L1128.02 327.155L1275.09 504.405C1276.15 505.68 1275.97 507.571 1274.7 508.629C1273.47 509.646 1271.67 509.523 1270.6 508.378L1270.47 508.236L1123.4 330.986C1122.34 329.711 1122.52 327.82 1123.79 326.762Z" style="fill: rgb(63, 82, 155);"/>
  <path fill-rule="evenodd" clip-rule="evenodd" d="M1159.54 327.132C1160.57 325.831 1162.46 325.609 1163.76 326.635C1165.01 327.622 1165.26 329.404 1164.37 330.696L1164.26 330.849L1138.76 363.169C1137.73 364.469 1135.84 364.692 1134.54 363.666C1133.29 362.679 1133.04 360.897 1133.93 359.605L1134.04 359.452L1159.54 327.132Z" style="fill: rgb(63, 82, 155);"/>
  <path fill-rule="evenodd" clip-rule="evenodd" d="M1191.75 325.882C1192.78 324.581 1194.67 324.359 1195.97 325.385C1197.22 326.372 1197.47 328.154 1196.58 329.446L1196.47 329.599L1146.87 392.459C1145.84 393.759 1143.95 393.982 1142.65 392.955C1141.4 391.969 1141.15 390.187 1142.04 388.895L1142.15 388.742L1191.75 325.882Z" style="fill: rgb(63, 82, 155);"/>
  <path fill-rule="evenodd" clip-rule="evenodd" d="M1226.9 326.713C1227.93 325.416 1229.82 325.201 1231.12 326.232C1232.36 327.223 1232.61 329.006 1231.71 330.295L1231.6 330.447L1157.14 424.107C1156.11 425.404 1154.22 425.62 1152.92 424.589C1151.68 423.597 1151.43 421.814 1152.33 420.525L1152.44 420.373L1226.9 326.713Z" style="fill: rgb(63, 82, 155);"/>
  <path fill-rule="evenodd" clip-rule="evenodd" d="M1263.76 354.008C1265 353.006 1266.8 353.151 1267.86 354.309L1267.98 354.453L1400.94 518.753C1401.98 520.041 1401.79 521.93 1400.5 522.972C1399.26 523.974 1397.46 523.829 1396.4 522.671L1396.28 522.527L1263.32 358.227C1262.28 356.939 1262.47 355.05 1263.76 354.008Z" style="fill: rgb(63, 82, 155);"/>
  <path fill-rule="evenodd" clip-rule="evenodd" d="M1266.67 404.678C1267.91 403.676 1269.71 403.821 1270.77 404.979L1270.89 405.123L1362.3 518.083C1363.34 519.371 1363.15 521.26 1361.86 522.302C1360.62 523.304 1358.82 523.158 1357.76 522.001L1357.64 521.857L1266.23 408.897C1265.19 407.609 1265.39 405.72 1266.67 404.678Z" style="fill: rgb(63, 82, 155);"/>
  <path fill-rule="evenodd" clip-rule="evenodd" d="M1268.61 453.148C1269.85 452.146 1271.65 452.292 1272.71 453.45L1272.83 453.593L1324.86 517.893C1325.9 519.181 1325.71 521.07 1324.42 522.113C1323.18 523.115 1321.38 522.969 1320.32 521.811L1320.2 521.668L1268.17 457.368C1267.13 456.08 1267.32 454.191 1268.61 453.148Z" style="fill: rgb(63, 82, 155);"/>
  <path fill-rule="evenodd" clip-rule="evenodd" d="M1271.37 497.918C1272.61 496.916 1274.41 497.062 1275.47 498.22L1275.59 498.363L1291.54 518.083C1292.58 519.372 1292.38 521.261 1291.1 522.303C1289.86 523.305 1288.06 523.158 1287 522.001L1286.88 521.857L1270.93 502.137C1269.89 500.848 1270.09 498.96 1271.37 497.918Z" style="fill: rgb(63, 82, 155);"/>
  <path fill-rule="evenodd" clip-rule="evenodd" d="M1277.85 326.268C1279.08 325.253 1280.87 325.38 1281.95 326.526L1282.07 326.669L1421.66 495.509C1422.72 496.786 1422.54 498.677 1421.26 499.732C1420.03 500.747 1418.24 500.621 1417.16 499.474L1417.04 499.332L1277.45 330.492C1276.39 329.215 1276.57 327.324 1277.85 326.268Z" style="fill: rgb(63, 82, 155);"/>
  <path fill-rule="evenodd" clip-rule="evenodd" d="M1437.15 346.446C1438.2 345.161 1440.09 344.967 1441.37 346.014C1442.61 347.019 1442.84 348.805 1441.92 350.083L1441.81 350.234L1303 520.724C1301.95 522.009 1300.06 522.202 1298.78 521.156C1297.54 520.15 1297.31 518.365 1298.23 517.087L1298.34 516.936L1437.15 346.446Z" style="fill: rgb(63, 82, 155);"/>
  <path fill-rule="evenodd" clip-rule="evenodd" d="M1429.52 402.943C1430.56 401.655 1432.45 401.456 1433.74 402.498C1434.98 403.5 1435.21 405.285 1434.3 406.566L1434.18 406.717L1341.45 521.317C1340.41 522.605 1338.52 522.805 1337.23 521.762C1335.99 520.76 1335.76 518.975 1336.67 517.694L1336.79 517.543L1429.52 402.943Z" style="fill: rgb(63, 82, 155);"/>
  <path fill-rule="evenodd" clip-rule="evenodd" d="M1420.54 460.123C1421.58 458.835 1423.47 458.636 1424.76 459.678C1426 460.68 1426.23 462.465 1425.32 463.746L1425.2 463.897L1377.75 522.527C1376.71 523.815 1374.82 524.014 1373.53 522.972C1372.29 521.97 1372.06 520.185 1372.97 518.904L1373.09 518.753L1420.54 460.123Z" style="fill: rgb(63, 82, 155);"/>
  <path fill-rule="evenodd" clip-rule="evenodd" d="M1415.35 507.904C1416.39 506.616 1418.28 506.417 1419.57 507.459C1420.81 508.461 1421.04 510.246 1420.13 511.527L1420.01 511.678L1411.23 522.528C1410.19 523.816 1408.3 524.015 1407.01 522.973C1405.77 521.971 1405.54 520.186 1406.45 518.905L1406.57 518.754L1415.35 507.904Z" fill="#389AA3"/>
  <path fill-rule="evenodd" clip-rule="evenodd" d="M1319.93 325.698C1321.06 324.485 1322.96 324.415 1324.17 325.542C1325.34 326.627 1325.45 328.423 1324.45 329.639L1324.33 329.782L1268.53 389.852C1267.4 391.066 1265.5 391.136 1264.29 390.008C1263.12 388.924 1263.01 387.127 1264.01 385.912L1264.13 385.768L1319.93 325.698Z" style="fill: rgb(63, 82, 155);"/>
  <path fill-rule="evenodd" clip-rule="evenodd" d="M1287.82 327.896C1288.99 326.72 1290.89 326.714 1292.06 327.881C1293.19 329.002 1293.24 330.797 1292.21 331.979L1292.08 332.124L1267.78 356.594C1266.61 357.769 1264.71 357.776 1263.54 356.608C1262.41 355.488 1262.36 353.692 1263.39 352.51L1263.52 352.366L1287.82 327.896Z" style="fill: rgb(63, 82, 155);"/>
  <path fill-rule="evenodd" clip-rule="evenodd" d="M1347.17 325.81C1348.24 324.542 1350.13 324.378 1351.4 325.444C1352.62 326.469 1352.82 328.258 1351.88 329.521L1351.77 329.67L1270.86 425.95C1269.79 427.219 1267.9 427.383 1266.63 426.317C1265.41 425.292 1265.21 423.503 1266.15 422.239L1266.26 422.09L1347.17 325.81Z" style="fill: rgb(63, 82, 155);"/>
  <path fill-rule="evenodd" clip-rule="evenodd" d="M1379.2 326.689C1380.25 325.403 1382.13 325.207 1383.42 326.251C1384.66 327.256 1384.89 329.041 1383.97 330.32L1383.86 330.471L1274.76 464.821C1273.71 466.108 1271.82 466.303 1270.54 465.259C1269.3 464.255 1269.07 462.469 1269.99 461.19L1270.1 461.039L1379.2 326.689Z" style="fill: rgb(63, 82, 155);"/>
  <path fill-rule="evenodd" clip-rule="evenodd" d="M1421.76 327.038C1422.84 325.78 1424.73 325.634 1425.99 326.713C1427.2 327.75 1427.38 329.541 1426.44 330.795L1426.32 330.943L1275.8 506.513C1274.72 507.771 1272.83 507.916 1271.57 506.838C1270.36 505.801 1270.18 504.01 1271.12 502.756L1271.24 502.608L1421.76 327.038Z" style="fill: rgb(63, 82, 155);"/>
  <path fill-rule="evenodd" clip-rule="evenodd" d="M1381.9 325.508C1383.14 324.506 1384.94 324.651 1386 325.809L1386.12 325.953L1433.72 384.763C1434.76 386.05 1434.57 387.939 1433.28 388.982C1432.04 389.984 1430.25 389.839 1429.18 388.681L1429.06 388.537L1381.46 329.727C1380.42 328.439 1380.61 326.55 1381.9 325.508Z" style="fill: rgb(63, 82, 155);"/>
  <path fill-rule="evenodd" clip-rule="evenodd" d="M1415.16 326.658C1416.4 325.656 1418.2 325.802 1419.26 326.959L1419.38 327.103L1440.01 352.593C1441.05 353.881 1440.86 355.77 1439.57 356.812C1438.33 357.815 1436.53 357.669 1435.47 356.511L1435.35 356.368L1414.72 330.878C1413.68 329.59 1413.87 327.701 1415.16 326.658Z" style="fill: rgb(63, 82, 155);"/>
  <path fill-rule="evenodd" clip-rule="evenodd" d="M1350.37 325.508C1351.61 324.506 1353.41 324.651 1354.47 325.809L1354.59 325.953L1431.49 420.973C1432.53 422.261 1432.34 424.15 1431.05 425.192C1429.81 426.194 1428.01 426.049 1426.95 424.891L1426.83 424.747L1349.93 329.727C1348.89 328.439 1349.08 326.55 1350.37 325.508Z" style="fill: rgb(63, 82, 155);"/>
  <path fill-rule="evenodd" clip-rule="evenodd" d="M1316.18 326.947C1317.42 325.945 1319.22 326.091 1320.28 327.248L1320.4 327.392L1425.2 456.892C1426.24 458.18 1426.05 460.069 1424.76 461.111C1423.52 462.114 1421.72 461.968 1420.66 460.81L1420.54 460.667L1315.74 331.167C1314.7 329.879 1314.89 327.99 1316.18 326.947Z" style="fill: rgb(63, 82, 155);"/>
  <path fill-rule="evenodd" clip-rule="evenodd" d="M1439.28 327.419C1439.5 325.777 1441.01 324.626 1442.65 324.848C1444.24 325.061 1445.36 326.474 1445.24 328.047L1445.22 328.222L1419.28 520.372C1419.06 522.014 1417.55 523.165 1415.91 522.944C1414.33 522.73 1413.2 521.318 1413.32 519.745L1413.34 519.569L1439.28 327.419Z" style="fill: rgb(63, 82, 155);"/>
  <path fill-rule="evenodd" clip-rule="evenodd" d="M1262.53 325.996C1264.12 325.898 1265.5 327.064 1265.69 328.63L1265.7 328.806L1277.34 517.866C1277.45 519.52 1276.19 520.943 1274.53 521.045C1272.94 521.143 1271.56 519.977 1271.37 518.41L1271.36 518.235L1259.72 329.175C1259.61 327.521 1260.87 326.098 1262.53 325.996Z" style="fill: rgb(63, 82, 155);"/>
  <path fill-rule="evenodd" clip-rule="evenodd" d="M1459.24 296.08C1463.85 296.08 1468.27 297.91 1471.52 301.168C1474.78 304.425 1476.61 308.843 1476.61 313.45C1476.61 322.934 1469.01 330.643 1459.57 330.817L1459.24 330.82H1259.24C1257.58 330.82 1256.24 329.477 1256.24 327.82C1256.24 326.223 1257.49 324.917 1259.06 324.825L1259.24 324.82H1459.24C1465.52 324.82 1470.61 319.73 1470.61 313.45C1470.61 310.435 1469.41 307.543 1467.28 305.41C1465.23 303.36 1462.48 302.174 1459.59 302.085L1459.24 302.08L1124.88 302.08C1122.29 302.07 1119.78 302.943 1117.76 304.555C1116.47 305.589 1114.58 305.376 1113.55 304.081C1112.51 302.786 1112.72 300.898 1114.02 299.865C1117 297.488 1120.68 296.161 1124.47 296.084L1124.89 296.08H1459.24Z" style="fill: rgb(63, 82, 155);"/>
  <path fill-rule="evenodd" clip-rule="evenodd" d="M1259.26 324.82C1260.92 324.82 1262.26 326.163 1262.26 327.82C1262.26 329.418 1261.01 330.724 1259.44 330.815L1259.26 330.82H1124.86C1123.2 330.82 1121.86 329.477 1121.86 327.82C1121.86 326.223 1123.11 324.917 1124.68 324.825L1124.86 324.82H1259.26Z" style="fill: rgb(63, 82, 155);"/>
  <path fill-rule="evenodd" clip-rule="evenodd" d="M314.044 333.17C315.701 333.194 317.024 334.557 317 336.214C316.767 352.223 313.722 368.067 308.003 383.022C307.411 384.569 305.676 385.344 304.129 384.752C302.581 384.16 301.807 382.426 302.398 380.878C307.866 366.58 310.778 351.432 311.001 336.126C311.025 334.47 312.387 333.146 314.044 333.17Z" style="fill: rgb(63, 82, 155);"/>
  <path fill-rule="evenodd" clip-rule="evenodd" d="M311.961 351.505C312.251 349.934 313.716 348.876 315.281 349.072L315.455 349.099L400.895 364.869C402.525 365.17 403.602 366.735 403.301 368.364C403.011 369.935 401.546 370.993 399.98 370.797L399.806 370.77L314.366 355C312.737 354.699 311.66 353.134 311.961 351.505Z" style="fill: rgb(63, 82, 155);"/>
  <path fill-rule="evenodd" clip-rule="evenodd" d="M308.8 368.595C309.09 367.023 310.556 365.966 312.121 366.162L312.295 366.189L407.465 383.759C409.094 384.06 410.171 385.625 409.871 387.254C409.581 388.825 408.115 389.883 406.55 389.686L406.376 389.659L311.206 372.089C309.577 371.789 308.5 370.224 308.8 368.595Z" style="fill: rgb(63, 82, 155);"/>
  <path fill-rule="evenodd" clip-rule="evenodd" d="M310.38 360.056C310.67 358.485 312.136 357.427 313.701 357.623L313.875 357.65L404.755 374.42C406.384 374.721 407.461 376.285 407.161 377.915C406.871 379.486 405.406 380.543 403.84 380.347L403.666 380.32L312.786 363.55C311.157 363.25 310.08 361.685 310.38 360.056Z" style="fill: rgb(63, 82, 155);"/>
  <path fill-rule="evenodd" clip-rule="evenodd" d="M286.72 319.217C288.181 311.274 296.13 306.159 304.474 307.534L304.795 307.59L389.985 323.31C391.614 323.61 392.691 325.175 392.39 326.804C392.101 328.375 390.635 329.433 389.07 329.237L388.896 329.21L303.706 313.49C298.406 312.512 293.481 315.627 292.621 320.303C291.775 324.901 295.127 329.488 300.268 330.575L300.545 330.63L397.545 348.54C399.174 348.841 400.251 350.405 399.95 352.035C399.66 353.606 398.195 354.663 396.63 354.467L396.456 354.44L299.456 336.53C290.998 334.969 285.24 327.261 286.72 319.217Z" style="fill: rgb(63, 82, 155);"/>
  <path fill-rule="evenodd" clip-rule="evenodd" d="M273.72 389.236C275.181 381.293 283.131 376.169 291.473 377.543L291.794 377.599L411.154 399.599C412.784 399.899 413.861 401.464 413.561 403.093C413.271 404.664 411.806 405.722 410.241 405.526L410.067 405.5L290.706 383.499C285.41 382.522 280.482 385.643 279.621 390.322C278.775 394.921 282.126 399.505 287.268 400.585L287.545 400.639L418.485 424.809C420.114 425.11 421.191 426.674 420.89 428.304C420.6 429.875 419.135 430.933 417.57 430.736L417.396 430.709L286.46 406.54C278.001 404.991 272.24 397.283 273.72 389.236Z" style="fill: rgb(63, 82, 155);"/>
  <path fill-rule="evenodd" clip-rule="evenodd" d="M173.456 495.052C177.41 493.818 181.616 496.023 182.85 499.977C184.084 503.931 181.879 508.136 177.925 509.37C164.938 513.424 152.938 518.927 144.993 525.593C135.327 533.704 133.466 541.589 140.607 551.957C142.956 555.368 142.096 560.038 138.685 562.388C135.273 564.737 130.603 563.877 128.254 560.465C116.33 543.154 120.183 526.83 135.352 514.102C145.163 505.87 158.732 499.647 173.456 495.052Z" style="fill: rgb(63, 82, 155);"/>
  <path fill-rule="evenodd" clip-rule="evenodd" d="M263.173 482.881C263.407 481.301 264.834 480.192 266.405 480.332L266.58 480.353L441.85 506.323C443.489 506.566 444.621 508.091 444.378 509.73C444.144 511.311 442.717 512.42 441.146 512.279L440.971 512.258L265.701 486.288C264.062 486.045 262.93 484.52 263.173 482.881Z" fill="#ED675B"/>
  <path fill-rule="evenodd" clip-rule="evenodd" d="M254.873 466.211C255.107 464.631 256.534 463.522 258.105 463.662L258.28 463.683L438.34 490.353C439.979 490.596 441.111 492.121 440.868 493.76C440.634 495.341 439.207 496.45 437.636 496.309L437.461 496.288L257.401 469.618C255.762 469.376 254.63 467.85 254.873 466.211Z" fill="#ED675B"/>
  <path fill-rule="evenodd" clip-rule="evenodd" d="M262.953 499.342C263.187 497.762 264.614 496.653 266.185 496.793L266.36 496.814L447.33 523.624C448.969 523.867 450.101 525.392 449.858 527.031C449.624 528.612 448.197 529.721 446.626 529.58L446.451 529.559L265.481 502.749C263.842 502.506 262.71 500.981 262.953 499.342Z" fill="#ED675B"/>
  <path fill-rule="evenodd" clip-rule="evenodd" d="M258.333 516.041C258.567 514.461 259.994 513.352 261.565 513.492L261.74 513.513L455.65 542.243C457.289 542.486 458.421 544.012 458.178 545.651C457.944 547.231 456.517 548.34 454.946 548.199L454.771 548.178L260.861 519.448C259.222 519.206 258.09 517.68 258.333 516.041Z" fill="#ED675B"/>
  <path fill-rule="evenodd" clip-rule="evenodd" d="M248.203 529.08C248.437 527.5 249.864 526.391 251.435 526.532L251.61 526.552L390.51 547.142C392.149 547.385 393.281 548.911 393.038 550.55C392.804 552.13 391.377 553.239 389.806 553.098L389.63 553.078L250.73 532.488C249.091 532.245 247.96 530.719 248.203 529.08Z" fill="#ED675B"/>
  <path fill-rule="evenodd" clip-rule="evenodd" d="M210.024 445.625C210.231 443.981 211.732 442.816 213.376 443.024C226.723 444.709 238.727 448.301 248.503 454.773C261.758 463.547 269.229 476.736 269.181 494.798C269.137 512.495 261.792 525.995 248.943 535.141C238.815 542.35 225.679 546.433 213.185 547.205C211.532 547.307 210.108 546.049 210.006 544.395C209.904 542.742 211.162 541.318 212.815 541.216C224.257 540.509 236.322 536.759 245.463 530.253C256.772 522.203 263.142 510.495 263.181 494.782C263.223 478.794 256.805 467.464 245.191 459.776C236.318 453.902 225.138 450.556 212.625 448.977C210.981 448.769 209.816 447.268 210.024 445.625Z" fill="#ED675B"/>
  <path fill-rule="evenodd" clip-rule="evenodd" d="M209.96 432.45C209.96 430.621 211.577 429.233 213.363 429.477L213.536 429.506L431.396 472.086C433.022 472.404 434.083 473.98 433.765 475.606C433.458 477.174 431.982 478.216 430.419 478.003L430.245 477.974L215.96 436.093V548.441L349.921 547.14C351.519 547.125 352.837 548.361 352.943 549.935L352.95 550.111C352.966 551.709 351.73 553.027 350.156 553.133L349.98 553.14L212.99 554.47C211.381 554.486 210.058 553.233 209.966 551.648L209.96 551.47V432.45Z" fill="#ED675B"/>
  <path fill-rule="evenodd" clip-rule="evenodd" d="M184.905 394.888C189.574 390.992 195.697 389.315 201.692 390.278L202.11 390.349L419.59 430.149C421.22 430.447 422.3 432.01 422.001 433.64C421.714 435.212 420.25 436.271 418.685 436.078L418.51 436.051L201.035 396.252C196.662 395.459 192.162 396.647 188.75 399.495C185.437 402.259 183.481 406.31 183.366 410.609L183.36 411V576.27C183.36 577.927 182.017 579.27 180.36 579.27C178.763 579.27 177.457 578.021 177.365 576.446L177.36 576.27L177.36 410.998C177.364 404.775 180.128 398.875 184.905 394.888Z" fill="#ED675B"/>
  <path fill-rule="evenodd" clip-rule="evenodd" d="M1025.32 71.5694L364.972 77.6503C352.913 77.7429 341.59 83.4852 334.387 93.1635C327.184 102.842 324.934 115.337 328.309 126.919L463.039 590.597C463.411 591.879 464.585 592.76 465.92 592.76H1639.76C1660.24 592.76 1673.75 579.326 1681.53 557.419C1684.19 549.913 1685.99 541.905 1687.1 533.902C1687.45 531.383 1687.71 529.025 1687.88 526.874L1687.97 525.76L1688.02 524.999L1688.07 524.299L1688.1 523.669L1688.12 523.16L1688.12 522.987C1688.08 521.384 1686.77 520.083 1685.14 520.07L1188.47 516.177L1049.8 89.1823C1046.36 78.5988 1036.45 71.4699 1025.32 71.5694ZM365.023 83.6501L1025.38 77.5691C1033.89 77.4931 1041.46 82.9447 1044.1 91.0368L1183.44 520.087L1183.5 520.26C1183.94 521.393 1185.04 522.15 1186.27 522.16L1681.93 526.044L1681.84 527.07C1681.68 528.927 1681.45 530.942 1681.16 533.079C1680.1 540.707 1678.39 548.329 1675.87 555.411L1675.66 556.002C1668.62 575.416 1657.04 586.76 1639.76 586.76H468.172L334.071 125.243C331.221 115.463 333.12 104.916 339.2 96.7457C345.28 88.5757 354.839 83.7283 365.023 83.6501Z" style="fill: rgb(63, 82, 155);"/>
  <path fill-rule="evenodd" clip-rule="evenodd" d="M1011.29 98.4907L1010.98 98.4883L408.884 99.7293C404.749 99.7326 400.855 101.69 398.383 105.01C395.911 108.329 395.152 112.621 396.335 116.587L504.794 481.933C506.452 487.487 511.547 491.298 517.339 491.319L1133.79 492.569C1138.02 492.577 1141.98 490.553 1144.46 487.131C1146.93 483.708 1147.6 479.306 1146.27 475.301L1023.51 107.45C1021.74 102.166 1016.84 98.5848 1011.29 98.4907ZM408.892 105.729L1011.01 104.489L1011.02 104.489C1014.1 104.468 1016.84 106.429 1017.81 109.349L1140.57 477.199C1141.3 479.371 1140.93 481.761 1139.59 483.618C1138.25 485.475 1136.1 486.574 1133.81 486.569L517.356 485.319C514.214 485.308 511.445 483.237 510.545 480.221L402.086 114.876C401.443 112.721 401.855 110.393 403.195 108.593C404.536 106.793 406.648 105.731 408.892 105.729Z" fill="#ED675B"/>
  <path fill-rule="evenodd" clip-rule="evenodd" d="M620.75 210.447C612.102 220.615 616.308 237.806 629.493 249.02C642.679 260.234 660.322 261.624 668.97 251.456C677.618 241.287 673.413 224.096 660.227 212.882C647.042 201.668 629.398 200.278 620.75 210.447ZM625.321 214.334C631.5 207.068 645.419 208.165 656.34 217.453C667.261 226.741 670.579 240.303 664.4 247.569C658.22 254.834 644.301 253.738 633.38 244.45C622.459 235.162 619.142 221.6 625.321 214.334Z" fill="#ED675B"/>
  <path fill-rule="evenodd" clip-rule="evenodd" d="M654.11 256.15C682.351 256.15 712.677 275.888 727.07 303.035C727.846 304.499 727.289 306.315 725.825 307.091C724.361 307.867 722.545 307.309 721.769 305.846C708.381 280.593 680.044 262.15 654.11 262.15C628.806 262.15 613.265 279.731 616.267 304.185C616.469 305.829 615.3 307.326 613.655 307.528C612.011 307.73 610.514 306.56 610.312 304.916C606.871 276.887 625.201 256.15 654.11 256.15Z" fill="#ED675B"/>
  <path fill-rule="evenodd" clip-rule="evenodd" d="M834.856 342.695C826.208 352.863 830.413 370.054 843.599 381.268C856.784 392.482 874.428 393.872 883.076 383.704C891.723 373.535 887.518 356.344 874.333 345.13C861.147 333.916 843.504 332.526 834.856 342.695ZM839.426 346.582C845.606 339.316 859.524 340.413 870.446 349.701C881.367 358.989 884.684 372.551 878.505 379.817C872.326 387.082 858.407 385.986 847.486 376.698C836.565 367.41 833.247 353.848 839.426 346.582Z" fill="#ED675B"/>
  <path fill-rule="evenodd" clip-rule="evenodd" d="M868.22 388.41C896.672 388.41 927.491 408.661 941.637 436.168C942.395 437.642 941.815 439.45 940.342 440.208C938.868 440.966 937.059 440.386 936.302 438.912C923.15 413.339 894.342 394.41 868.22 394.41C842.806 394.41 827.253 412.136 830.415 436.738C830.626 438.381 829.465 439.884 827.822 440.096C826.179 440.307 824.675 439.146 824.464 437.503C820.841 409.317 839.185 388.41 868.22 388.41Z" fill="#ED675B"/>
  <path fill-rule="evenodd" clip-rule="evenodd" d="M804.431 183.068C795.783 193.236 799.988 210.427 813.174 221.641C826.359 232.855 844.003 234.245 852.651 224.077C861.299 213.908 857.094 196.717 843.908 185.503C830.722 174.289 813.079 172.899 804.431 183.068ZM809.002 186.955C815.181 179.689 829.1 180.786 840.021 190.074C850.942 199.362 854.259 212.924 848.08 220.19C841.901 227.456 827.982 226.359 817.061 217.071C806.14 207.783 802.822 194.221 809.002 186.955Z" fill="#ED675B"/>
  <path fill-rule="evenodd" clip-rule="evenodd" d="M837.79 228.811C866.482 228.811 897.31 249.182 911.385 276.923C912.135 278.401 911.544 280.206 910.067 280.956C908.589 281.706 906.784 281.115 906.034 279.638C892.949 253.847 864.141 234.811 837.79 234.811C812.259 234.811 796.692 252.669 800.023 277.41C800.244 279.052 799.092 280.563 797.45 280.784C795.808 281.005 794.297 279.853 794.076 278.211C790.261 249.874 808.623 228.811 837.79 228.811Z" fill="#ED675B"/>
  <path fill-rule="evenodd" clip-rule="evenodd" d="M673.28 189.291C674.936 189.291 676.28 190.634 676.28 192.291C676.28 193.889 675.031 195.195 673.456 195.286L673.28 195.291L559.91 195.29L595.008 303.15H741.849L710.247 206.009C709.752 204.49 710.536 202.862 712.005 202.288L712.171 202.228C713.691 201.734 715.319 202.518 715.893 203.987L715.952 204.153L748.832 305.223C749.445 307.104 748.101 309.034 746.158 309.146L745.98 309.151H592.83C591.592 309.151 590.489 308.392 590.039 307.253L589.977 307.079L552.927 193.219C552.315 191.338 553.658 189.408 555.601 189.296L555.78 189.291H673.28Z" fill="#ED675B"/>
  <path fill-rule="evenodd" clip-rule="evenodd" d="M892.609 161.92C893.847 161.92 894.95 162.679 895.4 163.818L895.462 163.992L905.952 196.242C906.465 197.818 905.603 199.51 904.027 200.023C902.508 200.517 900.88 199.733 900.306 198.264L900.247 198.098L890.43 167.919H743.579L778.677 275.769H925.527L907.027 218.918C906.532 217.399 907.316 215.771 908.785 215.197L908.951 215.137C910.47 214.643 912.099 215.426 912.673 216.895L912.732 217.062L932.512 277.842C933.125 279.723 931.781 281.653 929.838 281.765L929.659 281.77H776.499C775.262 281.77 774.159 281.011 773.709 279.872L773.647 279.698L736.597 165.848C735.984 163.967 737.328 162.037 739.271 161.925L739.449 161.92H892.609Z" fill="#ED675B"/>
  <path fill-rule="evenodd" clip-rule="evenodd" d="M923.04 321.551C924.277 321.551 925.38 322.309 925.83 323.449L925.892 323.622L962.942 437.482C963.555 439.364 962.212 441.294 960.268 441.406L960.09 441.411H806.93C805.692 441.411 804.589 440.652 804.139 439.513L804.077 439.339L800.277 427.659C799.764 426.083 800.626 424.391 802.202 423.878C803.721 423.384 805.349 424.167 805.923 425.637L805.982 425.803L809.108 435.411H955.959L920.861 327.551H774.011L798.462 402.672C798.957 404.191 798.173 405.82 796.704 406.394L796.538 406.453C795.019 406.948 793.391 406.165 792.816 404.695L792.757 404.529L767.027 325.479C766.415 323.598 767.758 321.668 769.701 321.556L769.88 321.551H923.04Z" fill="#ED675B"/>
  <path fill-rule="evenodd" clip-rule="evenodd" d="M722.37 180.781H670.51C668.471 180.781 667.026 182.771 667.657 184.709L674.247 204.969C674.649 206.205 675.8 207.041 677.1 207.041H728.96C730.998 207.041 732.443 205.052 731.812 203.113L725.222 182.853C724.821 181.618 723.669 180.781 722.37 180.781ZM720.191 186.781L724.829 201.04H679.278L674.64 186.781H720.191Z" fill="#ED675B"/>
  <path fill-rule="evenodd" clip-rule="evenodd" d="M925.98 194.74H874.12C872.081 194.74 870.636 196.73 871.267 198.669L877.857 218.919C878.259 220.154 879.411 220.99 880.71 220.99H932.57C934.609 220.99 936.054 219 935.423 217.062L928.833 196.812C928.431 195.576 927.279 194.74 925.98 194.74ZM923.801 200.74L928.439 214.99H882.888L878.251 200.74H923.801Z" fill="#ED675B"/>
  <path fill-rule="evenodd" clip-rule="evenodd" d="M806.85 401.541H754.99C752.951 401.541 751.506 403.53 752.137 405.469L758.727 425.729C759.129 426.965 760.28 427.801 761.58 427.801H813.45C815.489 427.801 816.934 425.811 816.302 423.872L809.702 403.612C809.3 402.377 808.148 401.541 806.85 401.541ZM804.672 407.541L809.317 421.801H763.758L759.12 407.541H804.672Z" fill="#ED675B"/>
  <path fill-rule="evenodd" clip-rule="evenodd" d="M530.951 189.437C532.471 188.943 534.099 189.726 534.673 191.196L534.732 191.362L571.782 305.222C572.295 306.797 571.434 308.49 569.858 309.003C568.339 309.497 566.71 308.713 566.136 307.244L566.077 307.078L529.027 193.218C528.514 191.643 529.376 189.95 530.951 189.437Z" fill="#ED675B"/>
  <path fill-rule="evenodd" clip-rule="evenodd" d="M757.392 281.367C758.911 280.873 760.54 281.656 761.113 283.126L761.173 283.292L767.628 303.149L862.29 303.15C863.887 303.15 865.193 304.398 865.285 305.973L865.29 306.15C865.29 307.747 864.041 309.053 862.466 309.144L862.29 309.15H765.45C764.212 309.15 763.108 308.391 762.659 307.251L762.597 307.077L755.467 285.147C754.954 283.571 755.816 281.879 757.392 281.367Z" fill="#ED675B"/>
  <path fill-rule="evenodd" clip-rule="evenodd" d="M752.18 321.34C753.417 321.34 754.521 322.098 754.97 323.238L755.033 323.412L773.623 380.542C774.135 382.117 773.274 383.81 771.698 384.323C770.179 384.817 768.55 384.033 767.976 382.564L767.917 382.398L750.001 327.339L730.3 327.34C728.702 327.34 727.396 326.091 727.305 324.516L727.3 324.34C727.3 322.742 728.549 321.436 730.124 321.345L730.3 321.34H752.18Z" fill="#ED675B"/>
  <path fill-rule="evenodd" clip-rule="evenodd" d="M735.801 145.702L735.687 145.613L735.589 145.532L735.326 145.292C735.27 145.249 735.221 145.233 735.101 145.219L734.79 145.193L735.224 145.222L736.281 145.272L737.977 145.328L740.997 145.4L744.564 145.464L751.183 145.55L761.095 145.641L776.462 145.733L791.571 145.785L809.978 145.812L823.539 145.809L840.608 145.773L855.926 145.703L866.938 145.619L874.152 145.537L879.443 145.45L882.21 145.388L884.136 145.329L885.36 145.279L886.086 145.237L886.334 145.218L886.39 145.201C887.858 144.81 889.392 145.583 889.95 146.996L890.01 147.162L890.064 147.782L890.087 148.113C890.124 148.767 890.067 149.047 889.813 149.48L889.681 149.692L889.425 150.076L889.104 150.371L888.955 150.503L888.84 150.597C888.805 150.624 888.772 150.647 888.739 150.668L888.637 150.727L888.444 150.826C888.175 150.955 887.955 151.022 887.713 151.076C887.51 151.121 887.309 151.149 887.065 151.175L886.556 151.218L885.905 151.259L884.925 151.304L883.437 151.356L881.612 151.405L876.824 151.498L870.195 151.586L863.56 151.649L850.465 151.733L835.448 151.788L821.323 151.811L802.974 151.807L789.321 151.78L771.37 151.708L755.11 151.593L745.955 151.504L740.656 151.425L738.647 151.377L737.441 151.338L736.408 151.294L735.531 151.244L734.795 151.187L734.185 151.124L733.872 151.082L733.595 151.037L733.35 150.988L733.135 150.937L732.887 150.862C732.868 150.856 732.85 150.849 732.831 150.842L732.629 150.76L732.496 150.693L732.336 150.597L732.19 150.493C730.869 149.494 730.608 147.612 731.607 146.291C732.568 145.02 734.344 144.73 735.654 145.598L735.801 145.702Z" fill="#ED675B"/>
  <path fill-rule="evenodd" clip-rule="evenodd" d="M369.995 77.5646C371.643 77.3962 373.116 78.5959 373.284 80.2442C373.447 81.8336 372.337 83.2597 370.78 83.5105L370.573 83.5382L370.461 83.5624L370.288 83.609L370.058 83.681L369.779 83.7817C368.937 84.1036 368.078 84.6242 367.261 85.3949C365.585 86.9747 364.336 89.2517 363.644 92.3246L363.524 92.8921C363.448 93.2763 363.381 93.6723 363.322 94.0803L363.24 94.7012C363.038 96.381 362.975 98.2536 363.064 100.33L363.104 101.119L363.159 101.926C363.17 102.062 363.181 102.199 363.192 102.337L363.27 103.174C363.298 103.456 363.328 103.741 363.362 104.03L363.469 104.906L363.591 105.802L363.729 106.718C363.753 106.872 363.778 107.027 363.804 107.183L363.965 108.129C363.993 108.289 364.022 108.449 364.052 108.61L364.237 109.587L364.438 110.584L364.656 111.601L364.89 112.64C364.93 112.815 364.971 112.99 365.013 113.167L365.272 114.237L365.548 115.328C365.595 115.512 365.643 115.696 365.692 115.881L365.994 117.004C366.045 117.193 366.098 117.383 366.151 117.574L366.478 118.729L368.888 127.024L376.93 154.981L393.29 212.102L443.284 387.09L500.305 586.936C500.759 588.53 499.836 590.19 498.243 590.644C496.706 591.082 495.108 590.239 494.588 588.75L406.442 279.935L380.435 188.991L367.955 145.463L363.401 129.648L360.891 121.003C360.769 120.588 360.651 120.176 360.535 119.767L360.197 118.549C360.142 118.348 360.088 118.147 360.034 117.947L359.723 116.758L359.43 115.588C359.335 115.201 359.243 114.817 359.154 114.436L358.897 113.304C358.689 112.368 358.5 111.451 358.329 110.554L358.132 109.486L357.952 108.437C357.867 107.917 357.788 107.404 357.715 106.897L357.578 105.894C357.492 105.231 357.417 104.58 357.354 103.941L357.267 102.991L357.196 102.06C357.019 99.4455 357.038 97.0457 357.243 94.8524L357.323 94.0868C357.994 88.283 360.011 83.9835 363.145 81.029C364.557 79.6975 366.088 78.769 367.636 78.1774C368.614 77.8033 369.427 77.6226 369.995 77.5646Z" style="fill: rgb(63, 82, 155);"/>
  <path fill-rule="evenodd" clip-rule="evenodd" d="M1180.54 512.92C1182.2 512.92 1183.54 514.263 1183.54 515.92C1183.54 517.518 1182.29 518.824 1180.72 518.915L1180.54 518.92H477.85C476.193 518.92 474.85 517.577 474.85 515.92C474.85 514.322 476.099 513.016 477.674 512.925L477.85 512.92H1180.54Z" style="fill: rgb(63, 82, 155);"/>
  <path fill-rule="evenodd" clip-rule="evenodd" d="M1679.15 543.789C1680.81 543.789 1682.15 545.132 1682.15 546.789C1682.15 548.387 1680.9 549.693 1679.33 549.784L1679.15 549.789H1151.4C1149.74 549.789 1148.4 548.446 1148.4 546.789C1148.4 545.191 1149.65 543.885 1151.22 543.794L1151.4 543.789H1679.15Z" style="fill: rgb(63, 82, 155);"/>
  <path fill-rule="evenodd" clip-rule="evenodd" d="M1155.33 512.922C1156.98 512.992 1158.27 514.391 1158.2 516.046L1158.15 516.943L1158.08 518.087L1157.98 519.39C1157.77 522.009 1157.47 524.923 1157.07 528.059C1155.92 537.029 1154.14 546.003 1151.61 554.408C1148.12 566.001 1143.46 575.591 1137.39 582.506C1129.95 590.98 1120.64 595.113 1109.54 593.984C1107.89 593.817 1106.69 592.345 1106.86 590.696C1107.02 589.048 1108.5 587.847 1110.14 588.015C1127.08 589.737 1138.69 576.512 1145.87 552.678C1148.29 544.622 1150.01 535.961 1151.12 527.294C1151.47 524.562 1151.74 522.007 1151.93 519.682L1152.03 518.484L1152.14 516.93L1152.19 516.035L1152.2 515.793C1152.27 514.197 1153.57 512.945 1155.15 512.92L1155.33 512.922Z" style="fill: rgb(63, 82, 155);"/>
  <path fill-rule="evenodd" clip-rule="evenodd" d="M643.47 531.809H602.78C594.496 531.809 587.78 538.524 587.78 546.809V561.269C587.78 569.553 594.496 576.269 602.78 576.269H643.47C651.754 576.269 658.47 569.553 658.47 561.269V546.809C658.47 538.524 651.754 531.809 643.47 531.809ZM652.47 561.269C652.47 566.239 648.44 570.269 643.47 570.269H602.78C597.809 570.269 593.78 566.239 593.78 561.269V546.809C593.78 546.669 593.78 546.539 593.78 546.399H652.43C652.43 546.539 652.43 546.669 652.43 546.809L652.47 561.269Z" fill="#ED675B"/>
  <path fill-rule="evenodd" clip-rule="evenodd" d="M734 531.809H693.3C685.016 531.809 678.3 538.524 678.3 546.809V561.269C678.3 569.553 685.016 576.269 693.3 576.269H734C742.284 576.269 749 569.553 749 561.269V546.809C749 538.524 742.284 531.809 734 531.809ZM743 561.269C743 566.239 738.97 570.269 734 570.269H693.3C688.329 570.269 684.3 566.239 684.3 561.269V546.809C684.3 546.669 684.3 546.539 684.3 546.399H743C743 546.539 743 546.669 743 546.809V561.269Z" fill="#ED675B"/>
  <rect x="500.67" y="535.479" width="44.66" height="36.04" rx="10.95" fill="#ED675B"/>
  <path fill-rule="evenodd" clip-rule="evenodd" d="M423.202 538.335C446.088 537.864 467.788 539.478 487.514 542.461C488.591 542.624 489.648 542.789 490.685 542.955L492.731 543.291C493.068 543.347 493.402 543.404 493.734 543.461L495.699 543.802C496.021 543.859 496.342 543.917 496.66 543.974L498.54 544.32L500.364 544.668L502.131 545.018C502.42 545.076 502.708 545.135 502.992 545.193L504.694 545.548L506.242 545.883L507.574 546.182L508.684 546.442L509.369 546.608L509.874 546.736C513.885 547.771 516.297 551.861 515.262 555.872C514.247 559.803 510.298 562.198 506.366 561.318L505.238 561.042L504.034 560.762L503.179 560.57L501.78 560.265L500.772 560.051L499.158 559.72L497.487 559.39C497.204 559.335 496.918 559.28 496.63 559.225L494.874 558.896L493.062 558.569L491.195 558.244C490.879 558.19 490.561 558.137 490.241 558.083L488.293 557.764C487.305 557.605 486.298 557.448 485.271 557.292C466.348 554.43 445.491 552.879 423.511 553.332C395.444 553.91 367.831 557.741 341.43 565.462L339.965 565.894C337.98 566.487 335.995 567.068 334.01 567.638L331.033 568.485C323.591 570.581 316.155 572.521 308.765 574.295L305.812 574.996C272.368 582.84 239.97 587.274 212.25 587.57C170.873 588.012 141.275 579.424 128.251 560.488C125.903 557.075 126.767 552.406 130.18 550.058C133.52 547.761 138.064 548.539 140.456 551.773L140.609 551.987C159.667 579.695 241.655 579.098 332.907 552.34L335.675 551.521C363.893 543.1 393.334 538.95 423.202 538.335Z" style="fill: rgb(63, 82, 155);"/>
  <path fill-rule="evenodd" clip-rule="evenodd" d="M764.48 68.1504H657.86C653.109 68.142 648.507 69.8059 644.86 72.8504L638.52 78.1304L666.73 77.8704C666.591 78.8644 666.521 79.8668 666.52 80.8704V87.0004C666.52 88.91 667.279 90.7413 668.629 92.0916C669.979 93.4419 671.81 94.2004 673.72 94.2004H764.45C768.45 94.2004 771.7 88.5204 771.7 81.5204V80.8504C771.73 73.8204 768.49 68.1504 764.48 68.1504Z" style="fill: rgb(63, 82, 155);"/>
  <rect x="687.56" y="58.4902" width="45.45" height="11.84" style="fill: rgb(63, 82, 155);"/>
  <path fill-rule="evenodd" clip-rule="evenodd" d="M767.17 0H654.7C648.073 0 642.7 5.37258 642.7 12V46.49C642.7 53.1174 648.073 58.49 654.7 58.49H767.17C773.798 58.49 779.17 53.1174 779.17 46.49V12C779.17 5.37258 773.798 0 767.17 0ZM676.17 52.15C677.827 52.15 679.17 53.4931 679.17 55.15C679.17 56.8069 677.827 58.15 676.17 58.15C670.414 58.1445 665.75 53.4764 665.75 47.72V10.77C665.75 5.01747 670.408 0.351031 676.16 0.34C677.817 0.34 679.16 1.68315 679.16 3.34C679.16 4.99685 677.817 6.34 676.16 6.34C673.717 6.34551 671.74 8.32728 671.74 10.77V47.77C671.768 50.1932 673.737 52.1447 676.16 52.15H676.17ZM733 50.59C723.49 50.59 715.75 41.49 715.75 30.3C715.75 19.11 723.5 10 733 10C742.5 10 750.25 19.1 750.25 30.28C750.25 41.46 742.53 50.59 733 50.59Z" style="fill: rgb(63, 82, 155);"/>
  <path fill-rule="evenodd" clip-rule="evenodd" d="M733 16C726.8 16 721.75 22.41 721.75 30.28C721.75 38.15 726.75 44.57 733 44.57C739.25 44.57 744.25 38.16 744.25 30.28C744.25 22.4 739.22 16 733 16Z" style="fill: rgb(63, 82, 155);"/>
  <ellipse cx="700.79" cy="30.3007" rx="6.04" ry="7.33" fill="#ED675B"/>
  <path fill-rule="evenodd" clip-rule="evenodd" d="M1837.7 588.01C1839.36 588.01 1840.7 589.353 1840.7 591.01C1840.7 592.607 1839.45 593.913 1837.88 594.005L1837.7 594.01H3C1.34315 594.01 0 592.667 0 591.01C0 589.412 1.24892 588.106 2.82373 588.015L3 588.01H1837.7Z" style="fill: rgb(63, 82, 155);"/>
</svg>