<?xml version="1.0" encoding="utf-8"?>
<svg width="1586" height="710" viewBox="0 0 1586 710" fill="none" xmlns="http://www.w3.org/2000/svg">
  <path fill-rule="evenodd" clip-rule="evenodd" d="M197.549 186.433C210.53 170.065 230.397 166.406 249.066 175.712C267.752 185.027 282.137 205.662 286.904 232.064L287.376 234.742L287.54 235.655C291.488 257.417 295.288 267.026 303.341 276.651L303.621 276.98C307.885 281.902 326.374 300.236 329.051 303.022C330.26 304.28 330.322 306.388 329.189 307.731C328.056 309.073 326.158 309.142 324.949 307.884L322.366 305.266C316.331 299.193 302.55 285.421 299.082 281.348L298.945 281.186C290.039 270.542 285.806 259.839 281.659 236.97C281.491 236.047 281.323 235.1 281.153 234.123C272.445 183.608 226.105 160.508 202.051 190.836C191.667 203.929 190.622 223.679 197.022 247.277C201.636 264.285 210.316 282.711 216.646 291.525L216.928 291.914C220.046 296.172 221.391 303.728 222.924 321.326L224.401 339.156L224.715 342.768C225.167 347.851 225.612 352.39 226.109 356.877C227.666 370.944 229.634 383.454 232.319 395.316C232.758 397.254 233.214 399.166 233.689 401.054C234.135 402.826 233.203 404.664 231.607 405.159C230.012 405.654 228.357 404.619 227.911 402.847C227.421 400.903 226.951 398.934 226.5 396.941C223.748 384.783 221.739 372.011 220.154 357.69L219.925 355.588C219.512 351.722 219.13 347.769 218.745 343.428L218.343 338.775C218.004 334.728 217.265 325.647 217.118 323.897L216.953 321.984C215.57 306.172 214.293 298.876 212.275 296.12C205.424 286.788 196.184 267.287 191.277 249.198C184.341 223.625 185.506 201.617 197.549 186.433Z" fill="#ED675B"/>
  <path fill-rule="evenodd" clip-rule="evenodd" d="M149.996 348.038C167.162 346.336 185.44 354.931 198.864 372.152L200.162 373.837C207.667 383.544 212.942 389.047 218.084 392.594C222.34 395.53 226.613 397.286 233.771 399.206L234.8 399.475C237.397 400.125 250.267 403.283 255.54 404.717L257.725 405.319C267.577 408.065 277.737 411.351 289.349 415.669C306.561 422.04 322.738 434.81 338.1 453.209C339.226 454.558 339.155 456.666 337.94 457.917C336.725 459.168 334.827 459.088 333.7 457.739C318.974 440.101 303.605 427.969 287.447 421.988C275.557 417.566 265.23 414.248 255.188 411.483L252.493 410.756C246.138 409.085 233.968 406.107 233.006 405.854C224.897 403.716 219.943 401.72 214.918 398.254C208.944 394.133 203.058 387.913 194.714 377.013C169.74 344.387 128.079 348.516 122.138 381.08C119.532 395.146 126.092 409.905 139.464 424.142C149.105 434.408 162.207 443.881 170.002 447.422L170.394 447.597C174.407 449.343 178.3 454.399 186.075 466.72L195.085 481.099L196.705 483.653C201.071 490.476 205.035 496.356 209.104 501.955C222.518 520.41 235.991 534.17 250.841 543.164C259.938 548.697 268.43 550.966 276.887 550.659C283.232 550.43 288.835 548.956 296.802 545.861L302.697 543.521L304.098 542.979C305.431 542.471 306.573 542.063 307.671 541.705C311.415 540.488 314.493 539.937 317.407 540.114C324.487 540.543 329.979 545.345 334.578 555.468C335.325 557.111 334.731 559.114 333.251 559.943C331.772 560.772 329.968 560.112 329.222 558.469C325.584 550.462 321.925 547.174 317.34 546.785L316.799 546.75C313.757 546.588 312.211 546.929 304.44 549.937L299.537 551.855C290.646 555.355 284.371 557.055 277.082 557.319C267.548 557.664 257.994 555.111 247.963 549.011C232.324 539.538 218.302 525.217 204.435 506.14C200.524 500.759 196.721 495.141 192.592 488.725L190.744 485.829L181.174 470.563L180.229 469.074C174.065 459.404 170.588 454.935 168.311 453.849L168.198 453.798C159.716 450.078 145.672 439.983 135.311 428.952C120.605 413.294 113.151 396.523 116.26 379.747C119.565 361.628 132.774 349.745 149.996 348.038Z" fill="#ED675B"/>
  <path fill-rule="evenodd" clip-rule="evenodd" d="M358.474 136.784C369.56 113.05 387.577 101.219 413.279 103.922C424.105 105.046 432.768 108.41 439.393 113.896C440.722 114.996 440.995 117.083 440.005 118.558C439.014 120.033 437.135 120.337 435.806 119.237C430.121 114.529 422.505 111.571 412.717 110.555C389.533 108.117 373.797 118.451 363.8 139.851C355.711 157.171 351.718 180.774 350.639 210.231L350.598 211.412C350.3 220.219 350.283 227.206 350.446 238.429L350.571 246.886C350.712 258.026 350.606 262.709 350.032 268.449L350.002 268.752C349.101 277.58 347.06 284.86 343.299 291.911C340.394 297.359 336.435 302.691 331.141 308.266L330.548 308.887C320.752 319.048 320.947 330.488 328.708 348.747L329.488 350.552C330.447 352.738 331.49 354.996 333.117 358.446L335.466 363.445C338.674 370.321 340.012 373.494 341.467 377.746C343.882 384.799 344.827 390.844 344.066 396.45L343.918 397.447C343.336 401.164 341.679 410.454 341.503 411.516C338.569 429.217 337.669 445.401 339.612 465.579C342.225 492.713 349.995 523.076 364.229 557.695C364.917 559.368 364.253 561.344 362.746 562.109C361.239 562.873 359.459 562.135 358.771 560.462C344.277 525.21 336.329 494.156 333.646 466.287C331.677 445.836 332.533 429.288 335.419 411.428L335.689 409.802C336.133 407.238 337.832 397.678 338.133 395.458C338.697 391.304 337.989 386.521 336.062 380.718L335.682 379.602C334.328 375.712 332.963 372.541 329.678 365.526L326.915 359.651C325.468 356.561 324.51 354.45 323.531 352.174C319.422 342.621 317.271 335.082 317.084 327.827C316.856 319 319.705 311.205 326.073 304.416L326.452 304.018C331.65 298.626 335.435 293.583 338.136 288.516C341.33 282.527 343.109 276.364 343.956 268.79L344.097 267.433C344.611 262.153 344.706 257.589 344.57 246.882L344.412 235.981C344.293 226.644 344.319 220.174 344.558 212.525L344.602 211.163C345.646 180.257 349.78 155.398 358.474 136.784Z" fill="#ED675B"/>
  <path fill-rule="evenodd" clip-rule="evenodd" d="M435.434 386.542C418.999 405.585 407.004 432.553 398.694 466.296C391.96 493.638 387.868 524.3 385.608 558.836C385.482 560.766 386.858 562.409 388.6 562.409H437.6C439.257 562.409 440.6 560.918 440.6 559.078V388.847C440.6 385.845 437.305 384.374 435.434 386.542ZM434.6 397.622V555.746H391.834L391.843 555.61C394.123 522.982 398.105 493.944 404.481 468.053C411.612 439.101 421.476 415.423 434.472 397.794L434.6 397.622Z" fill="#ED675B"/>
  <path fill-rule="evenodd" clip-rule="evenodd" d="M436.7 555.747C438.357 555.747 439.7 557.239 439.7 559.078C439.7 560.853 438.451 562.303 436.876 562.404L436.7 562.41H315.7C308.512 562.41 303.198 569.461 304.57 576.933L330.428 705.263C330.789 707.058 329.772 708.839 328.155 709.241C326.596 709.628 325.049 708.592 324.616 706.907L324.572 706.717L298.776 578.702C296.361 567.035 304.442 555.971 315.368 555.75L315.7 555.747H436.7Z" style="fill: rgb(63, 82, 155);"/>
  <path fill-rule="evenodd" clip-rule="evenodd" d="M1200.9 0.303711H437.6C435.943 0.303711 434.6 1.7952 434.6 3.63504V704.769C434.6 706.608 435.943 708.1 437.6 708.1H1200.9C1202.56 708.1 1203.9 706.608 1203.9 704.769V3.63504C1203.9 1.7952 1202.56 0.303711 1200.9 0.303711ZM1197.9 6.96526V701.437H440.6V6.96526H1197.9Z" style="fill: rgb(63, 82, 155);"/>
  <path fill-rule="evenodd" clip-rule="evenodd" d="M914.4 524.21H871.6C869.943 524.21 868.6 525.701 868.6 527.541V601.719C868.6 603.559 869.943 605.05 871.6 605.05H914.4C916.057 605.05 917.4 603.559 917.4 601.719V527.541C917.4 525.701 916.057 524.21 914.4 524.21ZM911.399 530.873V598.388H874.599V530.873H911.399Z" style="fill: rgb(63, 82, 155);"/>
  <path fill-rule="evenodd" clip-rule="evenodd" d="M981.6 493.007H938.8C937.143 493.007 935.8 494.498 935.8 496.338V601.719C935.8 603.559 937.143 605.051 938.8 605.051H981.6C983.257 605.051 984.6 603.559 984.6 601.719V496.338C984.6 494.498 983.257 493.007 981.6 493.007ZM978.599 499.67V598.388H941.799V499.67H978.599Z" style="fill: rgb(63, 82, 155);"/>
  <path fill-rule="evenodd" clip-rule="evenodd" d="M1048.7 443.703H1005.9C1004.24 443.703 1002.9 445.195 1002.9 447.034V601.719C1002.9 603.559 1004.24 605.051 1005.9 605.051H1048.7C1050.36 605.051 1051.7 603.559 1051.7 601.719V447.034C1051.7 445.195 1050.36 443.703 1048.7 443.703ZM1045.7 450.366V598.388H1008.9V450.366H1045.7Z" style="fill: rgb(63, 82, 155);"/>
  <rect x="1073" y="404.394" width="42.8" height="197.326" fill="#ED675B"/>
  <path fill-rule="evenodd" clip-rule="evenodd" d="M1130.3 303.121C1129.6 302.455 1128.7 302.233 1127.9 302.344L1099.9 307.341C1098.3 307.674 1097.1 309.339 1097.4 311.116C1097.7 312.893 1099.2 314.114 1100.8 313.892L1119.1 310.672L1064.5 381.074L1042.2 357.311C1041.6 356.644 1040.8 356.311 1040 356.422C1039.2 356.422 1038.4 356.866 1037.9 357.533L964.7 451.92L943.5 434.264C942.3 433.265 940.7 433.376 939.6 434.486L873.9 504.444C872.7 505.666 872.7 507.776 873.8 509.108C874.4 509.774 875.2 510.107 876 510.107C876.7 510.107 877.5 509.774 878.1 509.219L942 441.149L963.5 459.027C964.8 460.027 966.5 459.915 967.6 458.583L1040.5 364.528L1062.8 388.292C1063.4 388.958 1064.2 389.291 1065 389.18C1065.8 389.18 1066.6 388.736 1067.1 388.07L1125.4 312.893L1125 339.21C1125 341.098 1126.3 342.542 1128 342.542V342.542C1129.6 342.542 1131 341.098 1131 339.21L1131.5 305.564C1131.4 304.787 1131 303.787 1130.3 303.121Z" fill="#ED675B"/>
  <path fill-rule="evenodd" clip-rule="evenodd" d="M698.6 521.656C700.257 521.656 701.6 523.148 701.6 524.988C701.6 526.762 700.351 528.212 698.776 528.313L698.6 528.319H514.6C512.943 528.319 511.6 526.827 511.6 524.988C511.6 523.213 512.849 521.763 514.424 521.662L514.6 521.656H698.6Z" style="fill: rgb(63, 82, 155);"/>
  <path fill-rule="evenodd" clip-rule="evenodd" d="M650.1 552.749C651.757 552.749 653.1 554.24 653.1 556.08C653.1 557.854 651.851 559.305 650.276 559.406L650.1 559.412H514.6C512.943 559.412 511.6 557.92 511.6 556.08C511.6 554.306 512.849 552.856 514.424 552.755L514.6 552.749H650.1Z" style="fill: rgb(63, 82, 155);"/>
  <path fill-rule="evenodd" clip-rule="evenodd" d="M606.6 587.616C608.257 587.616 609.6 589.108 609.6 590.948C609.6 592.722 608.351 594.172 606.776 594.273L606.6 594.279H510.6C508.943 594.279 507.6 592.787 507.6 590.948C507.6 589.173 508.849 587.723 510.424 587.622L510.6 587.616H606.6Z" style="fill: rgb(63, 82, 155);"/>
  <path fill-rule="evenodd" clip-rule="evenodd" d="M799.2 521.656C800.857 521.656 802.2 523.148 802.2 524.988C802.2 526.762 800.951 528.212 799.376 528.313L799.2 528.319H719.8C718.143 528.319 716.8 526.827 716.8 524.988C716.8 523.213 718.049 521.763 719.624 521.662L719.8 521.656H799.2Z" style="fill: rgb(63, 82, 155);"/>
  <path fill-rule="evenodd" clip-rule="evenodd" d="M601.9 457.028L623.1 479.237V434.486L601.9 457.028Z" fill="#ED675B"/>
  <path fill-rule="evenodd" clip-rule="evenodd" d="M571.4 480.348L593.2 457.14L571.4 434.376V480.348Z" fill="#ED675B"/>
  <path fill-rule="evenodd" clip-rule="evenodd" d="M679.5 426.603H630.5L655.2 452.476L679.5 426.603Z" fill="#ED675B"/>
  <path fill-rule="evenodd" clip-rule="evenodd" d="M597.5 461.692L572.7 488.232H622.9V488.232L597.5 461.692Z" fill="#ED675B"/>
  <path fill-rule="evenodd" clip-rule="evenodd" d="M629.1 480.348L650.9 457.14L629.1 434.376V480.348Z" fill="#ED675B"/>
  <path fill-rule="evenodd" clip-rule="evenodd" d="M510.6 431.267V483.568L535.4 457.14L510.6 431.267Z" fill="#ED675B"/>
  <path fill-rule="evenodd" clip-rule="evenodd" d="M539.8 461.692L515 488.232H565.2V488.232L539.8 461.692Z" fill="#ED675B"/>
  <path fill-rule="evenodd" clip-rule="evenodd" d="M564 426.603H515L539.8 452.476L564 426.603Z" fill="#ED675B"/>
  <path fill-rule="evenodd" clip-rule="evenodd" d="M680.8 479.237V434.486L659.6 457.028L680.8 479.237Z" fill="#ED675B"/>
  <path fill-rule="evenodd" clip-rule="evenodd" d="M544.2 457.028L565.4 479.237V434.486L544.2 457.028Z" fill="#ED675B"/>
  <path fill-rule="evenodd" clip-rule="evenodd" d="M655.3 461.692L630.5 488.232H680.7V488.232L655.3 461.692Z" fill="#ED675B"/>
  <path fill-rule="evenodd" clip-rule="evenodd" d="M621.7 426.603H572.7L597.5 452.476L621.7 426.603Z" fill="#ED675B"/>
  <path fill-rule="evenodd" clip-rule="evenodd" d="M738.5 426.603H686.8V488.232V488.232H738.5V488.232V426.603Z" fill="#ED675B"/>
  <path fill-rule="evenodd" clip-rule="evenodd" d="M799.2 426.603H744.5V488.232V488.232H799.2V426.603Z" fill="#ED675B"/>
  <path fill-rule="evenodd" clip-rule="evenodd" d="M680.6 488.232C680.7 488.343 680.7 488.343 680.8 488.343V488.232H680.6Z" fill="#ED675B"/>
  <path fill-rule="evenodd" clip-rule="evenodd" d="M1088.1 197.407H1057.1C1055.44 197.407 1054.1 198.899 1054.1 200.739V235.162C1054.1 237.002 1055.44 238.494 1057.1 238.494H1088.1C1089.76 238.494 1091.1 237.002 1091.1 235.162V200.739C1091.1 198.899 1089.76 197.407 1088.1 197.407ZM1085.1 204.069V231.83H1060.1V204.069H1085.1Z" style="fill: rgb(63, 82, 155);"/>
  <path fill-rule="evenodd" clip-rule="evenodd" d="M1094.2 135H975.7C974.043 135 972.7 136.491 972.7 138.331V177.974C972.7 179.814 974.043 181.305 975.7 181.305H1094.2C1095.86 181.305 1097.2 179.814 1097.2 177.974V138.331C1097.2 136.491 1095.86 135 1094.2 135ZM1091.2 141.663V174.643H978.7V141.663H1091.2Z" style="fill: rgb(63, 82, 155);"/>
  <path fill-rule="evenodd" clip-rule="evenodd" d="M1036 231.831C1037.66 231.831 1039 233.323 1039 235.162C1039 236.936 1037.75 238.387 1036.18 238.488L1036 238.494H975.7C974.043 238.494 972.7 237.002 972.7 235.162C972.7 233.388 973.949 231.938 975.524 231.837L975.7 231.831H1036Z" style="fill: rgb(63, 82, 155);"/>
  <path fill-rule="evenodd" clip-rule="evenodd" d="M1036 215.507C1037.66 215.507 1039 216.998 1039 218.838C1039 220.612 1037.75 222.063 1036.18 222.164L1036 222.169H975.7C974.043 222.169 972.7 220.678 972.7 218.838C972.7 217.064 973.949 215.614 975.524 215.512L975.7 215.507H1036Z" style="fill: rgb(63, 82, 155);"/>
  <path fill-rule="evenodd" clip-rule="evenodd" d="M1036 199.295C1037.66 199.295 1039 200.786 1039 202.626C1039 204.4 1037.75 205.851 1036.18 205.952L1036 205.958H975.7C974.043 205.958 972.7 204.466 972.7 202.626C972.7 200.852 973.949 199.402 975.524 199.301L975.7 199.295H1036Z" style="fill: rgb(63, 82, 155);"/>
  <path fill-rule="evenodd" clip-rule="evenodd" d="M1043.2 324.886C1044.86 324.886 1046.2 326.377 1046.2 328.217C1046.2 329.991 1044.95 331.441 1043.38 331.543L1043.2 331.548H878.5C876.843 331.548 875.5 330.057 875.5 328.217C875.5 326.443 876.749 324.993 878.324 324.891L878.5 324.886H1043.2Z" style="fill: rgb(63, 82, 155);"/>
  <path fill-rule="evenodd" clip-rule="evenodd" d="M975.7 340.543C977.357 340.543 978.7 342.034 978.7 343.874C978.7 345.648 977.451 347.099 975.876 347.2L975.7 347.206H878.5C876.843 347.206 875.5 345.714 875.5 343.874C875.5 342.1 876.749 340.65 878.324 340.549L878.5 340.543H975.7Z" style="fill: rgb(63, 82, 155);"/>
  <path fill-rule="evenodd" clip-rule="evenodd" d="M709.5 233.386L822.5 169.758C831.5 189.524 836.2 211.288 836.2 233.386C836.2 310.562 779 374.079 709.5 374.079C670.9 374.079 634.4 354.535 610.4 321L709.5 233.386Z" fill="#ED675B"/>
  <path fill-rule="evenodd" clip-rule="evenodd" d="M911.3 122.675C912.957 122.675 914.3 124.166 914.3 126.006C914.3 127.78 913.051 129.23 911.476 129.332L911.3 129.337H806.6C804.943 129.337 803.6 127.846 803.6 126.006C803.6 124.232 804.849 122.782 806.424 122.68L806.6 122.675H911.3Z" style="fill: rgb(63, 82, 155);"/>
  <path fill-rule="evenodd" clip-rule="evenodd" d="M911.3 138.332C912.957 138.332 914.3 139.824 914.3 141.663C914.3 143.437 913.051 144.888 911.476 144.989L911.3 144.995H855.5C853.843 144.995 852.5 143.503 852.5 141.663C852.5 139.889 853.749 138.439 855.324 138.338L855.5 138.332H911.3Z" style="fill: rgb(63, 82, 155);"/>
  <path fill-rule="evenodd" clip-rule="evenodd" d="M911.3 154.101C912.957 154.101 914.3 155.592 914.3 157.432C914.3 159.206 913.051 160.656 911.476 160.758L911.3 160.763H874.2C872.543 160.763 871.2 159.272 871.2 157.432C871.2 155.658 872.449 154.208 874.024 154.106L874.2 154.101H911.3Z" style="fill: rgb(63, 82, 155);"/>
  <path fill-rule="evenodd" clip-rule="evenodd" d="M914.4 247.378C916.057 247.378 917.4 248.869 917.4 250.709C917.4 252.483 916.151 253.934 914.576 254.035L914.4 254.041H779.3C777.643 254.041 776.3 252.549 776.3 250.709C776.3 248.935 777.549 247.485 779.124 247.384L779.3 247.378H914.4Z" style="fill: rgb(63, 82, 155);"/>
  <path fill-rule="evenodd" clip-rule="evenodd" d="M914.4 259.703C916.057 259.703 917.4 261.195 917.4 263.034C917.4 264.809 916.151 266.259 914.576 266.36L914.4 266.366H889.1C887.443 266.366 886.1 264.874 886.1 263.034C886.1 261.26 887.349 259.81 888.924 259.709L889.1 259.703H914.4Z" style="fill: rgb(63, 82, 155);"/>
  <path fill-rule="evenodd" clip-rule="evenodd" d="M632.7 109.683C634.357 109.683 635.7 111.174 635.7 113.014C635.7 114.788 634.451 116.238 632.876 116.34L632.7 116.345H552.2C550.543 116.345 549.2 114.854 549.2 113.014C549.2 111.24 550.449 109.79 552.024 109.688L552.2 109.683H632.7Z" style="fill: rgb(63, 82, 155);"/>
  <path fill-rule="evenodd" clip-rule="evenodd" d="M568.3 122.342C569.957 122.342 571.3 123.833 571.3 125.673C571.3 127.447 570.051 128.897 568.476 128.999L568.3 129.004H552.2C550.543 129.004 549.2 127.513 549.2 125.673C549.2 123.899 550.449 122.449 552.024 122.347L552.2 122.342H568.3Z" style="fill: rgb(63, 82, 155);"/>
  <path fill-rule="evenodd" clip-rule="evenodd" d="M685.868 236.274L563.968 237.717C562.311 237.737 560.982 239.244 561 241.084C561.3 272.276 570.901 301.787 588.052 325.739C589.082 327.177 590.967 327.418 592.264 326.276L687.764 242.215C690.004 240.244 688.726 236.24 685.868 236.274ZM677.169 243.038L590.914 318.961L590.681 318.621C576.327 297.371 568.04 271.845 567.086 244.835L567.07 244.343L677.169 243.038Z" fill="#ED675B"/>
  <path fill-rule="evenodd" clip-rule="evenodd" d="M574.602 177.439C569.061 193.344 566.2 210.202 566.2 227.611V229.388C566.2 231.245 567.567 232.743 569.239 232.719L691.039 230.942C694.337 230.894 695.16 225.831 692.086 224.506L578.486 175.535C576.94 174.869 575.2 175.722 574.602 177.439ZM579.149 182.968L675.507 224.505L572.209 226.012L572.217 225.353C572.43 211.074 574.669 197.21 578.823 183.994L579.149 182.968Z" fill="#ED675B"/>
  <path fill-rule="evenodd" clip-rule="evenodd" d="M771.592 95.7107L711.492 213.084C710.029 215.943 712.783 219.177 715.435 217.715L824.335 157.64C825.815 156.823 826.422 154.83 825.691 153.183C814.755 128.555 797.263 108.04 775.679 94.459C774.239 93.5528 772.41 94.113 771.592 95.7107ZM775.307 101.932L775.663 102.17C793.879 114.418 808.823 131.947 818.762 152.77L818.951 153.169L721.562 206.895L775.307 101.932Z" fill="#ED675B"/>
  <path fill-rule="evenodd" clip-rule="evenodd" d="M760.2 100.466C742.6 89.2505 722.2 82.81 700.5 82.5879H698.5C647.4 83.1431 603.9 118.566 586.3 168.425L699.7 217.84L760.2 100.466Z" style="fill: rgb(63, 82, 155);"/>
  <path fill-rule="evenodd" clip-rule="evenodd" d="M586.7 260.147C588.357 260.147 589.7 261.639 589.7 263.479C589.7 265.253 588.451 266.703 586.876 266.804L586.7 266.81H506.2C504.543 266.81 503.2 265.319 503.2 263.479C503.2 261.705 504.449 260.254 506.024 260.153L506.2 260.147H586.7Z" style="fill: rgb(63, 82, 155);"/>
  <path fill-rule="evenodd" clip-rule="evenodd" d="M535.3 272.807C536.957 272.807 538.3 274.298 538.3 276.138C538.3 277.912 537.051 279.362 535.476 279.464L535.3 279.469H506.2C504.543 279.469 503.2 277.978 503.2 276.138C503.2 274.364 504.449 272.914 506.024 272.812L506.2 272.807H535.3Z" style="fill: rgb(63, 82, 155);"/>
  <path fill-rule="evenodd" clip-rule="evenodd" d="M1116.41 644.368C1118.07 644.253 1119.49 645.649 1119.59 647.485C1119.7 649.321 1118.44 650.903 1116.79 651.018C1110.58 651.448 1104.05 652.27 1097.61 653.467L1089.15 655.117L1085.48 655.851C1084.55 656.039 1083.66 656.222 1082.79 656.404L1081.5 656.674C1072.17 658.645 1065.47 660.385 1061.57 661.983C1060.67 662.355 1059.95 662.705 1059.45 663.016C1059.33 663.092 1059.23 663.161 1059.15 663.222L1059.03 663.316C1058.44 664.367 1058.62 664.919 1059.95 665.819L1060.12 665.933C1062.27 667.336 1065.96 668.163 1069.8 668.016C1071.45 667.952 1072.84 669.392 1072.9 671.23C1072.96 673.069 1071.66 674.611 1070 674.675C1065.11 674.862 1060.31 673.787 1057.08 671.677C1052.8 668.88 1051.32 664.181 1054.09 659.522C1055.03 657.931 1056.77 656.85 1059.5 655.732L1060.12 655.485C1064.25 653.88 1070.53 652.241 1079.05 650.412L1081.68 649.856C1083.22 649.535 1084.83 649.209 1086.57 648.861L1095.08 647.188C1102.23 645.793 1109.51 644.847 1116.41 644.368Z" style="fill: rgb(63, 82, 155);"/>
  <path fill-rule="evenodd" clip-rule="evenodd" d="M1169.97 638.948L1170.02 639.138L1184.12 703.988C1184.56 706.02 1183.23 707.978 1181.38 708.095L1181.2 708.101L1101.7 708.1L1101.36 708.122C1091.56 708.707 1085.72 705.879 1085.51 699.79L1085.5 699.523C1085.5 699.048 1085.53 698.571 1085.61 698.097L1085.64 697.903L1085.36 697.891C1079.76 697.584 1074.22 694.381 1072.92 690.602L1072.85 690.388C1072.52 689.258 1072.63 688.019 1073.14 686.706L1073.17 686.624L1072.97 686.653C1070.3 687.015 1068.14 687.027 1066.43 686.665L1066.18 686.608C1061.14 685.401 1059.8 680.766 1062.31 675.21C1063.81 671.794 1071.12 666.442 1082.5 659.525L1084.36 658.404C1092.74 653.394 1101.13 648.949 1104.57 647.734L1105.16 647.539C1108.09 646.631 1117.62 644.831 1132.38 642.295L1135.7 641.727C1140.01 640.993 1144.52 640.239 1149.1 639.482L1161.05 637.527L1166.67 636.622C1168.15 636.387 1169.54 637.385 1169.97 638.948ZM1177.39 701.437L1164.82 643.651L1157.87 644.778L1149.98 646.072C1146.72 646.612 1143.49 647.15 1140.34 647.68L1131 649.276C1118.02 651.523 1109.27 653.193 1106.82 653.942L1106.62 654.005C1099.25 656.346 1069.27 674.563 1067.68 678.165C1067.4 678.793 1067.22 679.32 1067.12 679.735L1067.09 679.906L1067.08 679.985L1067.23 680.037L1067.45 680.095C1069.43 680.572 1073.39 680.089 1079.15 678.598L1080.32 678.288L1080.37 678.244C1082.9 676.218 1085.95 674.192 1089.34 672.266L1089.75 672.036C1091.55 671.025 1093.51 669.999 1095.6 668.962C1099.46 667.046 1103.58 665.183 1107.7 663.444L1108.91 662.938C1109.51 662.692 1110.08 662.457 1110.62 662.234L1112 661.682L1113.22 661.201C1114.78 660.599 1116.49 661.521 1117.03 663.26C1117.56 664.936 1116.8 666.76 1115.35 667.428L1113.72 668.072L1112.69 668.491C1111.8 668.853 1110.84 669.248 1109.83 669.673C1105.81 671.37 1101.79 673.186 1098.04 675.045C1096.04 676.04 1094.17 677.023 1092.45 677.983C1087.88 680.547 1083.97 683.372 1081.32 685.935C1080.35 686.871 1079.6 687.724 1079.11 688.423L1078.99 688.599L1079.17 688.76C1079.89 689.363 1080.85 689.95 1081.91 690.403C1084.34 691.441 1086.85 691.631 1089.01 690.797L1089.08 690.768L1089.33 690.597C1092.37 688.573 1096.49 686.48 1101.46 684.339L1102.11 684.06C1104.24 683.155 1106.44 682.271 1108.69 681.417L1110.11 680.882L1111.5 680.263C1117.4 677.66 1119.32 677.128 1120.98 677.515L1121.06 677.535C1124.09 678.299 1124.21 683.042 1121.22 683.988L1120.35 684.269L1118.75 684.803C1118.05 685.041 1117.3 685.298 1116.52 685.571L1115.93 685.779C1115.04 686.091 1114.16 686.409 1113.28 686.732L1112.25 687.112L1108.99 688.583L1102.11 691.725C1100.03 692.665 1098.69 693.252 1097.34 693.808L1096.8 694.029C1093.86 695.189 1091.49 697.941 1091.5 699.466C1091.5 699.795 1091.71 700.097 1092.64 700.544C1094.27 701.333 1097.06 701.702 1100.96 701.474L1101.41 701.444L1101.6 701.438L1177.39 701.437Z" style="fill: rgb(63, 82, 155);"/>
  <path fill-rule="evenodd" clip-rule="evenodd" d="M1408 464.691C1408.9 435.597 1394.6 408.614 1371.3 395.399L1333.6 372.857L1329.5 393.512C1325 415.943 1305 430.156 1284.8 425.159L1279.9 423.938C1259.7 418.941 1246.9 396.732 1251.4 374.301L1257.7 342.875C1250.5 337.323 1244.8 329.772 1242.1 320C1241.9 319.334 1241.8 318.668 1241.6 318.113L1204 295.682L1203.9 619.598L1305.9 596.389L1301 520.324C1300.9 518.436 1302.1 516.882 1303.8 516.771C1305.5 516.66 1306.9 517.992 1307 519.88L1312.1 598.832C1312.2 600.498 1311.2 602.053 1309.7 602.386L1203.9 626.482V627.371L1146 639.142C1157.4 641.585 1170 704.325 1170 704.325H1375.4C1395.4 704.325 1411.6 686.113 1411.3 663.793L1408 464.691Z" style="fill: rgb(63, 82, 155);"/>
  <path fill-rule="evenodd" clip-rule="evenodd" d="M1339.26 325.09C1339.6 323.29 1341.19 322.136 1342.82 322.514C1344.38 322.878 1345.4 324.534 1345.17 326.266L1345.14 326.459L1332.33 394.236C1327.51 418.239 1306.28 433.496 1284.7 428.565L1284.04 428.409L1279.15 427.189C1257.53 421.842 1243.79 398.263 1248.23 374.303L1248.37 373.577L1254.67 342.151C1255.03 340.355 1256.63 339.224 1258.25 339.623C1259.81 340.009 1260.81 341.678 1260.56 343.407L1260.53 343.599L1254.23 375.025C1250.13 395.43 1261.61 415.675 1279.9 420.544L1280.46 420.687L1285.35 421.907C1303.73 426.453 1321.96 413.706 1326.34 393.444L1326.46 392.827L1339.26 325.09Z" style="fill: rgb(63, 82, 155);"/>
  <path fill-rule="evenodd" clip-rule="evenodd" d="M1271.52 173.503L1270.86 174.751C1259.44 196.484 1249.79 222.778 1242.92 248.772L1242.9 248.846L1242.91 248.808C1242.91 248.82 1242.9 248.834 1242.9 248.85L1242.63 249.866L1242.39 250.814L1242.13 251.834C1242.05 252.187 1241.96 252.553 1241.87 252.934C1241.07 256.234 1240.29 259.873 1239.55 263.797C1237.38 275.361 1236.11 286.928 1236.18 297.784C1236.23 306.375 1237.14 314.168 1239.03 320.983C1243 335.259 1253.11 346.012 1266.92 352.275C1279.01 357.765 1293.14 359.298 1304.44 356.569L1305.64 356.275C1324.05 351.725 1330.17 347.598 1340.26 334.463L1340.59 334.037C1343.75 329.889 1348.62 321.386 1354.83 309.472L1356.28 306.685C1356.65 305.968 1357.02 305.243 1357.4 304.508C1360.62 298.223 1363.95 291.533 1367.23 284.807L1369.03 281.09C1369.44 280.255 1369.83 279.442 1370.21 278.653L1372.96 272.912L1373.12 272.561C1373.53 271.634 1374.1 270.265 1374.76 268.489C1375.77 265.765 1376.75 262.727 1377.65 259.42C1380.17 250.206 1381.63 240.474 1381.56 230.582C1381.36 202.537 1369.07 178.532 1341.11 162.041L1340.09 161.447C1337.48 159.955 1334.39 158.402 1330.78 156.901C1324.72 154.378 1318.5 152.596 1312.32 151.871C1295.29 149.873 1281.04 156.096 1271.8 172.984L1271.52 173.503ZM1311.68 158.496C1317.32 159.157 1323.05 160.801 1328.68 163.141C1332.5 164.728 1335.68 166.375 1338.29 167.921C1364.25 183.233 1375.38 204.967 1375.56 230.635C1375.63 239.798 1374.26 248.877 1371.91 257.487C1371.07 260.582 1370.15 263.42 1369.21 265.952L1368.87 266.845C1368.71 267.276 1368.55 267.682 1368.39 268.064L1368.05 268.891C1367.96 269.098 1367.88 269.277 1367.82 269.427L1367.51 270.089L1365.66 273.975C1364.94 275.477 1364.16 277.082 1363.34 278.773L1362.93 279.625C1359.35 286.987 1355.7 294.348 1352.18 301.214L1351.07 303.372L1349.98 305.475C1343.9 317.164 1339.09 325.614 1336.17 329.52L1335.4 330.531C1326.15 342.51 1321.04 345.744 1303.16 350.059C1293.07 352.496 1280.18 351.097 1269.18 346.108C1256.93 340.548 1248.16 331.215 1244.77 319.019C1243.06 312.886 1242.23 305.722 1242.18 297.737C1242.12 287.809 1243.25 277.147 1245.19 266.439L1245.48 264.839L1245.65 263.969C1246.61 259.098 1248.05 252.913 1248.59 250.618L1248.68 250.648C1255.42 225.14 1264.89 199.335 1276.04 178.118L1276.68 176.899C1284.6 162.075 1296.65 156.732 1311.68 158.496Z" style="fill: rgb(63, 82, 155);"/>
  <path fill-rule="evenodd" clip-rule="evenodd" d="M1245.8 249.598C1251.7 227.389 1261.1 199.295 1274.1 175.088C1274.7 173.977 1275.3 172.867 1276 171.867C1265.5 162.762 1248.4 181.528 1236.6 220.283C1230.5 240.271 1213.9 250.376 1213.9 250.376C1226.6 262.701 1238.1 257.371 1245.6 250.376C1245.7 249.931 1245.7 249.598 1245.8 249.598Z" style="fill: rgb(63, 82, 155);"/>
  <path fill-rule="evenodd" clip-rule="evenodd" d="M1272.61 235.596C1273.23 233.887 1274.97 233.053 1276.51 233.733C1277.99 234.39 1278.75 236.215 1278.25 237.877L1278.19 238.061L1265.83 272.53L1274.04 275.9C1275.54 276.515 1276.33 278.318 1275.87 279.994L1275.81 280.179C1275.26 281.844 1273.64 282.723 1272.13 282.213L1271.96 282.15L1260.86 277.597C1259.34 276.972 1258.55 275.119 1259.05 273.427L1259.11 273.24L1272.61 235.596Z" style="fill: rgb(63, 82, 155);"/>
  <ellipse rx="6.01713" ry="3.56293" transform="matrix(0.360416 -0.932792 0.902775 0.430114 1263.13 232.684)" style="fill: rgb(63, 82, 155);"/>
  <ellipse rx="6.08054" ry="3.51885" transform="matrix(0.194924 -0.980818 0.971261 0.238018 1293.78 248.154)" style="fill: rgb(63, 82, 155);"/>
  <path fill-rule="evenodd" clip-rule="evenodd" d="M1305.66 224.071C1305.98 222.267 1307.56 221.097 1309.19 221.458C1313.76 222.474 1317.36 224.939 1320.02 228.387C1321.28 230.009 1322.24 231.741 1322.96 233.48C1323.4 234.552 1323.67 235.422 1323.8 235.995C1324.22 237.776 1323.25 239.593 1321.65 240.054C1320.1 240.498 1318.53 239.518 1318.04 237.85L1317.95 237.501C1317.88 237.243 1317.73 236.811 1317.5 236.257C1317.01 235.056 1316.34 233.848 1315.47 232.727C1313.65 230.369 1311.22 228.703 1308.01 227.991C1306.39 227.63 1305.33 225.875 1305.66 224.071Z" style="fill: rgb(63, 82, 155);"/>
  <path fill-rule="evenodd" clip-rule="evenodd" d="M1266.23 199.92C1269.82 199.629 1273.44 200.976 1276.97 203.345C1278.83 204.592 1280.26 205.841 1281.13 206.724C1282.35 207.969 1282.43 210.076 1281.31 211.431C1280.19 212.786 1278.29 212.876 1277.07 211.632L1276.95 211.509C1276.79 211.361 1276.55 211.141 1276.24 210.869C1275.53 210.249 1274.73 209.625 1273.86 209.047C1271.3 207.327 1268.8 206.393 1266.67 206.565C1265.67 206.647 1264.75 206.973 1263.9 207.585L1263.65 207.778C1262.3 208.849 1260.43 208.505 1259.46 207.009C1258.5 205.513 1258.81 203.432 1260.15 202.361C1262 200.896 1264.05 200.097 1266.23 199.92Z" style="fill: rgb(63, 82, 155);"/>
  <path fill-rule="evenodd" clip-rule="evenodd" d="M1437.3 250.709L1403.4 231.609C1407.7 203.626 1405 160.319 1357.7 135.889C1283.7 97.6899 1256.7 179.974 1256.7 179.974L1426.2 274.917C1432.2 278.359 1439.6 275.583 1442.7 268.92C1445.8 262.258 1443.4 254.151 1437.3 250.709Z" fill="#ED675B"/>
  <path fill-rule="evenodd" clip-rule="evenodd" d="M1292.28 295.843C1293.52 297.057 1293.65 299.161 1292.55 300.544C1292.33 300.825 1291.97 301.232 1291.46 301.722C1290.66 302.498 1289.72 303.264 1288.64 303.976C1282.28 308.167 1274.24 308.7 1265.02 303.417C1263.55 302.573 1262.97 300.563 1263.73 298.928C1264.49 297.294 1266.3 296.653 1267.78 297.497C1275.09 301.689 1280.94 301.301 1285.58 298.246C1286.33 297.748 1286.98 297.22 1287.52 296.7L1287.77 296.453L1288.05 296.15C1289.14 294.767 1291.03 294.63 1292.28 295.843Z" style="fill: rgb(63, 82, 155);"/>
  <path fill-rule="evenodd" clip-rule="evenodd" d="M1399.5 259.926L1328 219.839C1319.7 248.599 1309.3 306.231 1353.6 321.444C1353.6 321.444 1388.2 334.214 1398.2 321.555C1398.2 321.555 1374.4 302.234 1379.8 286.354C1379.8 286.354 1404.1 326.33 1432.7 305.121C1432.6 305.121 1398.9 293.128 1399.5 259.926Z" style="fill: rgb(63, 82, 155);"/>
  <path fill-rule="evenodd" clip-rule="evenodd" d="M1583 701.326C1584.66 701.326 1586 702.818 1586 704.657C1586 706.432 1584.75 707.882 1583.18 707.983L1583 707.989H3.39999C1.74314 707.989 0.399994 706.497 0.399994 704.657C0.399994 702.883 1.64891 701.433 3.22372 701.332L3.39999 701.326H1583Z" style="fill: rgb(63, 82, 155);"/>
</svg>