<svg width="27" height="29" viewBox="0 0 27 29" fill="none" xmlns="http://www.w3.org/2000/svg">
<path d="M25.9041 4.82444H18.8645V3.81875C18.8645 2.15251 17.5137 0.801758 15.8475 0.801758H11.8248C10.1586 0.801758 8.80781 2.15251 8.80781 3.81875V4.82444H1.76814C1.2127 4.82444 0.762451 5.27469 0.762451 5.83012C0.762451 6.38556 1.21276 6.83575 1.76814 6.83575H2.86127L4.78513 28.0462C4.83257 28.5656 5.26927 28.9625 5.79082 28.9604H21.8815C22.403 28.9626 22.8397 28.5657 22.8872 28.0462L24.811 6.83575H25.9042C26.4596 6.83575 26.9098 6.3855 26.9098 5.83006C26.9098 5.27463 26.4595 4.82444 25.9041 4.82444ZM10.8191 3.81875C10.8191 3.26332 11.2694 2.81307 11.8248 2.81307H15.8475C16.4029 2.81307 16.8532 3.26332 16.8532 3.81875V4.82444H10.8192V3.81875H10.8191ZM20.9633 26.949H6.709L4.88572 6.83575H9.8135H22.7916L20.9633 26.949Z" fill="#929292"/>
<path d="M10.8194 23.865C10.8193 23.8636 10.8192 23.8622 10.8191 23.8609L9.81344 9.78157C9.77402 9.22613 9.29177 8.80788 8.7364 8.8473C8.18097 8.88672 7.76271 9.36897 7.80213 9.92434L8.80782 24.0036C8.84535 24.531 9.28482 24.9393 9.8135 24.9379H9.88592C10.44 24.8994 10.858 24.4191 10.8194 23.865Z" fill="#929292"/>
<path d="M13.8361 8.84717C13.2807 8.84717 12.8304 9.29742 12.8304 9.85285V23.9321C12.8304 24.4876 13.2807 24.9378 13.8361 24.9378C14.3916 24.9378 14.8418 24.4876 14.8418 23.9321V9.85285C14.8418 9.29742 14.3916 8.84717 13.8361 8.84717Z" fill="#929292"/>
<path d="M18.9358 8.8473C18.3804 8.80788 17.8982 9.22613 17.8588 9.78157L16.8531 23.8609C16.8124 24.4148 17.2284 24.8968 17.7823 24.9375C17.784 24.9377 17.7857 24.9378 17.7874 24.9379H17.8588C18.3875 24.9393 18.8269 24.531 18.8645 24.0036L19.8701 9.92434C19.9096 9.36897 19.4913 8.88678 18.9358 8.8473Z" fill="#929292"/>
</svg>
