<svg width="26" height="26" viewBox="0 0 26 26" fill="#929292" xmlns="http://www.w3.org/2000/svg">
<path d="M13.1441 20.0812C13.831 20.0812 14.3878 19.5244 14.3878 18.8375C14.3878 18.1506 13.831 17.5938 13.1441 17.5938C12.4572 17.5938 11.9004 18.1506 11.9004 18.8375C11.9004 19.5244 12.4572 20.0812 13.1441 20.0812Z" fill="#6550DE"/>
<path d="M13.144 0.00756836C6.10536 0.00756836 0.408325 5.70366 0.408325 12.7433C0.408325 19.7819 6.10442 25.479 13.144 25.479C20.1827 25.479 25.8797 19.7829 25.8797 12.7433C25.8797 5.70461 20.1836 0.00756836 13.144 0.00756836ZM13.144 23.489C7.20516 23.489 2.39828 18.6829 2.39828 12.7433C2.39828 6.8044 7.20437 1.99752 13.144 1.99752C19.0829 1.99752 23.8898 6.80361 23.8898 12.7433C23.8898 18.6821 19.0837 23.489 13.144 23.489Z" fill="#6550DE"/>
<path d="M13.1441 6.40015C10.9496 6.40015 9.16418 8.18553 9.16418 10.3801C9.16418 10.9296 9.60964 11.375 10.1592 11.375C10.7087 11.375 11.1541 10.9296 11.1541 10.3801C11.1541 9.28279 12.0468 8.3901 13.1441 8.3901C14.2414 8.3901 15.134 9.28279 15.134 10.3801C15.134 11.4773 14.2414 12.37 13.1441 12.37C12.5946 12.37 12.1491 12.8155 12.1491 13.365V15.8524C12.1491 16.402 12.5946 16.8474 13.1441 16.8474C13.6936 16.8474 14.1391 16.402 14.1391 15.8524V14.234C15.8537 13.7911 17.124 12.2312 17.124 10.3801C17.124 8.18553 15.3386 6.40015 13.1441 6.40015Z" fill="#6550DE"/>
</svg>
