<svg width="29" height="29" viewBox="0 0 29 29" fill="none" xmlns="http://www.w3.org/2000/svg">
<g clip-path="url(#clip0)">
<path d="M17.9015 0.745403C17.5607 0.572304 17.1518 0.606897 16.8452 0.84925L7.84972 7.53153H1.78463C1.20542 7.53153 0.762451 7.98165 0.762451 8.57026V20.1344C0.762451 20.723 1.20542 21.173 1.78463 21.173H7.84972L16.8111 27.8553C16.9814 27.9938 17.1859 28.0631 17.4244 28.0631C17.5947 28.0631 17.731 28.0285 17.9014 27.9592C18.2421 27.7861 18.4466 27.4399 18.4466 27.0244V1.68022C18.4466 1.29936 18.2422 0.918503 17.9015 0.745403ZM7.16825 19.0957H2.80687V9.60893H7.16825V19.0957ZM16.4022 24.9816L9.21267 19.615V9.08956L16.4022 3.72295V24.9816Z" fill="#929292"/>
<path d="M22.331 18.6109C24.0687 17.8492 25.0909 16.2565 25.0909 14.3523C25.0909 12.4481 24.0687 10.8554 22.331 10.0937C21.8199 9.85134 21.2065 10.0937 20.968 10.6131C20.7295 11.1324 20.968 11.7556 21.4792 11.998C22.4673 12.4481 23.0125 13.3137 23.0125 14.387C23.0125 15.4603 22.4673 16.3259 21.4792 16.776C20.968 17.0183 20.7295 17.6415 20.968 18.1609C21.1384 18.5418 21.5132 18.7841 21.888 18.7841C22.0584 18.7148 22.1947 18.6802 22.331 18.6109Z" fill="#929292"/>
<path d="M22.4673 6.25048C21.9222 6.14664 21.377 6.49283 21.2747 7.08145C21.1725 7.63541 21.5132 8.18937 22.0925 8.29328C24.9206 8.84724 26.965 11.4093 26.965 14.3869C26.965 17.3646 24.9206 19.892 22.0925 20.4806C21.5473 20.5845 21.1725 21.1385 21.2747 21.6924C21.3769 22.1772 21.7858 22.5234 22.2629 22.5234C22.331 22.5234 22.3992 22.5234 22.4673 22.4888C26.2495 21.6925 28.9754 18.2994 28.9754 14.3524C28.9754 10.4053 26.2495 6.97761 22.4673 6.25048Z" fill="#929292"/>
</g>
<defs>
<clipPath id="clip0">
<rect width="28.2129" height="28.668" fill="white" transform="translate(0.762451 0.0161133)"/>
</clipPath>
</defs>
</svg>
